<mxfile host="app.diagrams.net" modified="2024-05-14T18:00:24.435Z" agent="Mozilla/5.0 (Windows NT 10.0; Win64; x64) AppleWebKit/537.36 (KHTML, like Gecko) Chrome/124.0.0.0 Safari/537.36" etag="WhIb-Wzp1BZrKJAkqA0W" version="24.4.0" type="device" pages="9">
  <diagram id="yNwqSHeTpBVaK9Dz1vEi" name="Page-10">
    <mxGraphModel dx="933" dy="522" grid="1" gridSize="10" guides="1" tooltips="1" connect="1" arrows="1" fold="1" page="1" pageScale="1" pageWidth="850" pageHeight="1100" math="0" shadow="0">
      <root>
        <mxCell id="0" />
        <mxCell id="1" parent="0" />
      </root>
    </mxGraphModel>
  </diagram>
  <diagram id="aKw5ZSldS44pJy_yGu1g" name="Page-2">
    <mxGraphModel dx="933" dy="522" grid="1" gridSize="10" guides="1" tooltips="1" connect="1" arrows="1" fold="1" page="1" pageScale="1" pageWidth="850" pageHeight="1100" math="0" shadow="0">
      <root>
        <mxCell id="0" />
        <mxCell id="1" parent="0" />
        <mxCell id="j96cmwfSm475v-tKjS0e-1" value="Pool" style="swimlane;childLayout=stackLayout;resizeParent=1;resizeParentMax=0;horizontal=1;startSize=20;horizontalStack=0;" parent="1" vertex="1">
          <mxGeometry x="180" y="90" width="480" height="380" as="geometry" />
        </mxCell>
        <mxCell id="j96cmwfSm475v-tKjS0e-2" value="Lane 1" style="swimlane;startSize=20;horizontal=0;" parent="j96cmwfSm475v-tKjS0e-1" vertex="1">
          <mxGeometry y="20" width="480" height="120" as="geometry" />
        </mxCell>
        <mxCell id="j96cmwfSm475v-tKjS0e-6" value="AWS" style="rounded=1;whiteSpace=wrap;html=1;" parent="j96cmwfSm475v-tKjS0e-2" vertex="1">
          <mxGeometry x="160" y="30" width="120" height="60" as="geometry" />
        </mxCell>
        <mxCell id="j96cmwfSm475v-tKjS0e-10" value="Azure" style="rounded=1;whiteSpace=wrap;html=1;" parent="j96cmwfSm475v-tKjS0e-2" vertex="1">
          <mxGeometry x="330" y="30" width="120" height="60" as="geometry" />
        </mxCell>
        <mxCell id="j96cmwfSm475v-tKjS0e-12" value="Google Cloud" style="rounded=1;whiteSpace=wrap;html=1;" parent="j96cmwfSm475v-tKjS0e-2" vertex="1">
          <mxGeometry x="30" y="30" width="120" height="60" as="geometry" />
        </mxCell>
        <mxCell id="j96cmwfSm475v-tKjS0e-3" value="Lane 2" style="swimlane;startSize=20;horizontal=0;" parent="j96cmwfSm475v-tKjS0e-1" vertex="1">
          <mxGeometry y="140" width="480" height="120" as="geometry" />
        </mxCell>
        <mxCell id="j96cmwfSm475v-tKjS0e-5" value="" style="rounded=1;whiteSpace=wrap;html=1;" parent="j96cmwfSm475v-tKjS0e-3" vertex="1">
          <mxGeometry x="160" y="20" width="120" height="60" as="geometry" />
        </mxCell>
        <mxCell id="j96cmwfSm475v-tKjS0e-4" value="Lane 3" style="swimlane;startSize=20;horizontal=0;" parent="j96cmwfSm475v-tKjS0e-1" vertex="1">
          <mxGeometry y="260" width="480" height="120" as="geometry" />
        </mxCell>
        <mxCell id="j96cmwfSm475v-tKjS0e-7" value="" style="edgeStyle=orthogonalEdgeStyle;rounded=0;orthogonalLoop=1;jettySize=auto;html=1;" parent="j96cmwfSm475v-tKjS0e-1" source="j96cmwfSm475v-tKjS0e-5" target="j96cmwfSm475v-tKjS0e-6" edge="1">
          <mxGeometry relative="1" as="geometry" />
        </mxCell>
        <mxCell id="j96cmwfSm475v-tKjS0e-11" value="" style="edgeStyle=orthogonalEdgeStyle;rounded=0;orthogonalLoop=1;jettySize=auto;html=1;" parent="j96cmwfSm475v-tKjS0e-1" source="j96cmwfSm475v-tKjS0e-5" target="j96cmwfSm475v-tKjS0e-10" edge="1">
          <mxGeometry relative="1" as="geometry" />
        </mxCell>
        <mxCell id="j96cmwfSm475v-tKjS0e-13" value="" style="edgeStyle=orthogonalEdgeStyle;rounded=0;orthogonalLoop=1;jettySize=auto;html=1;" parent="j96cmwfSm475v-tKjS0e-1" source="j96cmwfSm475v-tKjS0e-5" target="j96cmwfSm475v-tKjS0e-12" edge="1">
          <mxGeometry relative="1" as="geometry" />
        </mxCell>
      </root>
    </mxGraphModel>
  </diagram>
  <diagram id="J6i8frqxoax0092Uk-7O" name="Page-1">
    <mxGraphModel dx="933" dy="522" grid="1" gridSize="10" guides="1" tooltips="1" connect="1" arrows="1" fold="1" page="1" pageScale="1" pageWidth="850" pageHeight="1100" math="0" shadow="0">
      <root>
        <mxCell id="0" />
        <mxCell id="1" parent="0" />
        <mxCell id="VG_FcCOOish6zK821Ip1-3" value="EKS" style="rounded=1;whiteSpace=wrap;html=1;" parent="1" vertex="1">
          <mxGeometry x="330" y="120" width="190" height="340" as="geometry" />
        </mxCell>
        <mxCell id="VG_FcCOOish6zK821Ip1-1" value="AWS RDS" style="shape=cylinder3;whiteSpace=wrap;html=1;boundedLbl=1;backgroundOutline=1;size=15;" parent="1" vertex="1">
          <mxGeometry x="660" y="260" width="60" height="80" as="geometry" />
        </mxCell>
        <mxCell id="VG_FcCOOish6zK821Ip1-4" value="API GW" style="outlineConnect=0;dashed=0;verticalLabelPosition=bottom;verticalAlign=top;align=center;html=1;shape=mxgraph.aws3.api_gateway;fillColor=#D9A741;gradientColor=none;" parent="1" vertex="1">
          <mxGeometry x="160" y="193.5" width="76.5" height="93" as="geometry" />
        </mxCell>
        <mxCell id="VG_FcCOOish6zK821Ip1-5" value="Route53" style="rounded=1;whiteSpace=wrap;html=1;" parent="1" vertex="1">
          <mxGeometry x="10" y="220" width="120" height="60" as="geometry" />
        </mxCell>
        <mxCell id="VG_FcCOOish6zK821Ip1-6" style="edgeStyle=orthogonalEdgeStyle;rounded=0;orthogonalLoop=1;jettySize=auto;html=1;exitX=0.35;exitY=0.5;exitDx=0;exitDy=0;exitPerimeter=0;entryX=0;entryY=0.5;entryDx=0;entryDy=0;" parent="1" source="VG_FcCOOish6zK821Ip1-4" target="VG_FcCOOish6zK821Ip1-3" edge="1">
          <mxGeometry relative="1" as="geometry" />
        </mxCell>
        <mxCell id="VG_FcCOOish6zK821Ip1-7" value="" style="aspect=fixed;perimeter=ellipsePerimeter;html=1;align=center;shadow=0;dashed=0;fontColor=#4277BB;labelBackgroundColor=#ffffff;fontSize=12;spacingTop=3;image;image=img/lib/ibm/security/identity_provider.svg;" parent="1" vertex="1">
          <mxGeometry x="177" y="60" width="60" height="60" as="geometry" />
        </mxCell>
        <mxCell id="VG_FcCOOish6zK821Ip1-8" style="edgeStyle=orthogonalEdgeStyle;rounded=0;orthogonalLoop=1;jettySize=auto;html=1;exitX=0.35;exitY=0.5;exitDx=0;exitDy=0;exitPerimeter=0;entryX=0.34;entryY=0.592;entryDx=0;entryDy=0;entryPerimeter=0;" parent="1" source="VG_FcCOOish6zK821Ip1-4" target="VG_FcCOOish6zK821Ip1-4" edge="1">
          <mxGeometry relative="1" as="geometry" />
        </mxCell>
        <mxCell id="VG_FcCOOish6zK821Ip1-9" value="GET&lt;br&gt;POST (Restricted)" style="rounded=1;whiteSpace=wrap;html=1;" parent="1" vertex="1">
          <mxGeometry x="360" y="286.5" width="120" height="60" as="geometry" />
        </mxCell>
        <mxCell id="VG_FcCOOish6zK821Ip1-10" value="" style="outlineConnect=0;dashed=0;verticalLabelPosition=bottom;verticalAlign=top;align=center;html=1;shape=mxgraph.aws3.cloudwatch;fillColor=#759C3E;gradientColor=none;" parent="1" vertex="1">
          <mxGeometry x="180" y="347" width="82.5" height="93" as="geometry" />
        </mxCell>
        <mxCell id="VG_FcCOOish6zK821Ip1-13" style="edgeStyle=orthogonalEdgeStyle;rounded=0;orthogonalLoop=1;jettySize=auto;html=1;exitX=0;exitY=0.5;exitDx=0;exitDy=0;" parent="1" source="VG_FcCOOish6zK821Ip1-11" target="VG_FcCOOish6zK821Ip1-10" edge="1">
          <mxGeometry relative="1" as="geometry" />
        </mxCell>
        <mxCell id="VG_FcCOOish6zK821Ip1-11" value="Monitoring" style="rounded=1;whiteSpace=wrap;html=1;" parent="1" vertex="1">
          <mxGeometry x="390" y="350" width="120" height="60" as="geometry" />
        </mxCell>
        <mxCell id="VG_FcCOOish6zK821Ip1-14" value="AWS Log Analytics" style="rounded=1;whiteSpace=wrap;html=1;" parent="1" vertex="1">
          <mxGeometry x="161.25" y="490" width="120" height="60" as="geometry" />
        </mxCell>
        <mxCell id="VG_FcCOOish6zK821Ip1-15" value="" style="endArrow=classic;html=1;rounded=0;entryX=1;entryY=0.5;entryDx=0;entryDy=0;exitX=0.493;exitY=1.15;exitDx=0;exitDy=0;exitPerimeter=0;" parent="1" source="VG_FcCOOish6zK821Ip1-11" target="VG_FcCOOish6zK821Ip1-14" edge="1">
          <mxGeometry width="50" height="50" relative="1" as="geometry">
            <mxPoint x="400" y="310" as="sourcePoint" />
            <mxPoint x="450" y="260" as="targetPoint" />
          </mxGeometry>
        </mxCell>
        <mxCell id="VG_FcCOOish6zK821Ip1-16" value="Code Commit" style="whiteSpace=wrap;html=1;aspect=fixed;" parent="1" vertex="1">
          <mxGeometry x="40" y="680" width="80" height="80" as="geometry" />
        </mxCell>
        <mxCell id="VG_FcCOOish6zK821Ip1-17" value="Code Pipeline" style="whiteSpace=wrap;html=1;aspect=fixed;" parent="1" vertex="1">
          <mxGeometry x="150" y="680" width="80" height="80" as="geometry" />
        </mxCell>
        <mxCell id="VG_FcCOOish6zK821Ip1-18" value="Code Deploy" style="whiteSpace=wrap;html=1;aspect=fixed;" parent="1" vertex="1">
          <mxGeometry x="490" y="680" width="80" height="80" as="geometry" />
        </mxCell>
        <mxCell id="VG_FcCOOish6zK821Ip1-19" value="Image Artifactory" style="rounded=0;whiteSpace=wrap;html=1;" parent="1" vertex="1">
          <mxGeometry x="300" y="690" width="120" height="60" as="geometry" />
        </mxCell>
        <mxCell id="VG_FcCOOish6zK821Ip1-20" value="Terraform&amp;nbsp;" style="rounded=1;whiteSpace=wrap;html=1;" parent="1" vertex="1">
          <mxGeometry x="550" y="740" width="120" height="60" as="geometry" />
        </mxCell>
        <mxCell id="VG_FcCOOish6zK821Ip1-21" value="Dashboard (Health&amp;nbsp;)" style="rounded=1;whiteSpace=wrap;html=1;" parent="1" vertex="1">
          <mxGeometry x="710" y="690" width="120" height="60" as="geometry" />
        </mxCell>
        <mxCell id="VG_FcCOOish6zK821Ip1-23" value="Kafka / SQS / AWS Kafka" style="rounded=1;whiteSpace=wrap;html=1;" parent="1" vertex="1">
          <mxGeometry x="540" y="340" width="120" height="60" as="geometry" />
        </mxCell>
        <mxCell id="VG_FcCOOish6zK821Ip1-24" value="" style="endArrow=classic;html=1;rounded=0;" parent="1" target="VG_FcCOOish6zK821Ip1-23" edge="1">
          <mxGeometry width="50" height="50" relative="1" as="geometry">
            <mxPoint x="470" y="330" as="sourcePoint" />
            <mxPoint x="450" y="240" as="targetPoint" />
          </mxGeometry>
        </mxCell>
        <mxCell id="VG_FcCOOish6zK821Ip1-25" value="" style="endArrow=classic;html=1;rounded=0;exitX=0.67;exitY=-0.043;exitDx=0;exitDy=0;exitPerimeter=0;" parent="1" source="VG_FcCOOish6zK821Ip1-23" target="VG_FcCOOish6zK821Ip1-1" edge="1">
          <mxGeometry width="50" height="50" relative="1" as="geometry">
            <mxPoint x="480" y="340" as="sourcePoint" />
            <mxPoint x="550" y="361.53846153846155" as="targetPoint" />
          </mxGeometry>
        </mxCell>
        <mxCell id="VG_FcCOOish6zK821Ip1-26" value="" style="endArrow=classic;html=1;rounded=0;entryX=1;entryY=0.25;entryDx=0;entryDy=0;exitX=0;exitY=0;exitDx=0;exitDy=27.5;exitPerimeter=0;" parent="1" source="VG_FcCOOish6zK821Ip1-1" target="VG_FcCOOish6zK821Ip1-9" edge="1">
          <mxGeometry width="50" height="50" relative="1" as="geometry">
            <mxPoint x="400" y="290" as="sourcePoint" />
            <mxPoint x="450" y="240" as="targetPoint" />
          </mxGeometry>
        </mxCell>
        <mxCell id="VG_FcCOOish6zK821Ip1-27" value="API GW Cache" style="rounded=1;whiteSpace=wrap;html=1;" parent="1" vertex="1">
          <mxGeometry x="150" y="134" width="110" height="36" as="geometry" />
        </mxCell>
        <mxCell id="VG_FcCOOish6zK821Ip1-28" value="" style="endArrow=classic;html=1;rounded=0;" parent="1" edge="1">
          <mxGeometry width="50" height="50" relative="1" as="geometry">
            <mxPoint x="110" y="920" as="sourcePoint" />
            <mxPoint x="750" y="920" as="targetPoint" />
          </mxGeometry>
        </mxCell>
        <mxCell id="VG_FcCOOish6zK821Ip1-29" value="Master" style="edgeLabel;html=1;align=center;verticalAlign=middle;resizable=0;points=[];" parent="VG_FcCOOish6zK821Ip1-28" vertex="1" connectable="0">
          <mxGeometry x="0.8775" y="-2" relative="1" as="geometry">
            <mxPoint as="offset" />
          </mxGeometry>
        </mxCell>
        <mxCell id="VG_FcCOOish6zK821Ip1-31" value="Feature A" style="endArrow=classic;html=1;rounded=0;" parent="1" edge="1">
          <mxGeometry x="-0.2308" y="8" width="50" height="50" relative="1" as="geometry">
            <mxPoint x="410" y="920" as="sourcePoint" />
            <mxPoint x="510" y="1010" as="targetPoint" />
            <mxPoint y="-1" as="offset" />
          </mxGeometry>
        </mxCell>
        <mxCell id="VG_FcCOOish6zK821Ip1-32" value="Feature B" style="endArrow=classic;html=1;rounded=0;" parent="1" edge="1">
          <mxGeometry width="50" height="50" relative="1" as="geometry">
            <mxPoint x="410" y="920" as="sourcePoint" />
            <mxPoint x="500" y="1050" as="targetPoint" />
            <Array as="points">
              <mxPoint x="420" y="1040" />
            </Array>
          </mxGeometry>
        </mxCell>
        <mxCell id="VG_FcCOOish6zK821Ip1-33" value="Test Environment&lt;br&gt;Docker compose Testing" style="rounded=1;whiteSpace=wrap;html=1;" parent="1" vertex="1">
          <mxGeometry x="510" y="970" width="120" height="100" as="geometry" />
        </mxCell>
        <mxCell id="VG_FcCOOish6zK821Ip1-36" style="edgeStyle=orthogonalEdgeStyle;rounded=0;orthogonalLoop=1;jettySize=auto;html=1;exitX=1;exitY=0.5;exitDx=0;exitDy=0;" parent="1" source="VG_FcCOOish6zK821Ip1-34" edge="1">
          <mxGeometry relative="1" as="geometry">
            <mxPoint x="710" y="920" as="targetPoint" />
          </mxGeometry>
        </mxCell>
        <mxCell id="VG_FcCOOish6zK821Ip1-34" value="Staging&amp;nbsp;" style="rounded=1;whiteSpace=wrap;html=1;" parent="1" vertex="1">
          <mxGeometry x="650" y="970" width="120" height="100" as="geometry" />
        </mxCell>
        <mxCell id="VG_FcCOOish6zK821Ip1-35" value="Hotfix" style="endArrow=classic;html=1;rounded=0;" parent="1" edge="1">
          <mxGeometry width="50" height="50" relative="1" as="geometry">
            <mxPoint x="730" y="920" as="sourcePoint" />
            <mxPoint x="780" y="870" as="targetPoint" />
          </mxGeometry>
        </mxCell>
      </root>
    </mxGraphModel>
  </diagram>
  <diagram id="4eX-9ZvWuWU9Py6Ado3i" name="Page-3">
    <mxGraphModel dx="1050" dy="522" grid="1" gridSize="10" guides="1" tooltips="1" connect="1" arrows="1" fold="1" page="1" pageScale="1" pageWidth="850" pageHeight="1100" math="0" shadow="0">
      <root>
        <mxCell id="0" />
        <mxCell id="1" parent="0" />
        <mxCell id="Z2xd2DaK_DYdyQwOj-6I-1" value="Akamai" style="whiteSpace=wrap;html=1;" vertex="1" parent="1">
          <mxGeometry x="40" y="200" width="120" height="60" as="geometry" />
        </mxCell>
        <mxCell id="Z2xd2DaK_DYdyQwOj-6I-2" value="AWS" style="whiteSpace=wrap;html=1;" vertex="1" parent="1">
          <mxGeometry x="300" y="110" width="120" height="60" as="geometry" />
        </mxCell>
        <mxCell id="Z2xd2DaK_DYdyQwOj-6I-3" value="OCP" style="whiteSpace=wrap;html=1;" vertex="1" parent="1">
          <mxGeometry x="300" y="210" width="410" height="430" as="geometry" />
        </mxCell>
        <mxCell id="Z2xd2DaK_DYdyQwOj-6I-5" value="ELB" style="rounded=0;whiteSpace=wrap;html=1;" vertex="1" parent="1">
          <mxGeometry x="365" y="270" width="120" height="60" as="geometry" />
        </mxCell>
        <mxCell id="Z2xd2DaK_DYdyQwOj-6I-6" value="Kong on EC2" style="rounded=0;whiteSpace=wrap;html=1;" vertex="1" parent="1">
          <mxGeometry x="365" y="350" width="120" height="60" as="geometry" />
        </mxCell>
        <mxCell id="Z2xd2DaK_DYdyQwOj-6I-7" value="EKS" style="rounded=0;whiteSpace=wrap;html=1;" vertex="1" parent="1">
          <mxGeometry x="365" y="430" width="215" height="170" as="geometry" />
        </mxCell>
      </root>
    </mxGraphModel>
  </diagram>
  <diagram id="O5s5K1L1NDUKmPo27cpJ" name="Page-4">
    <mxGraphModel dx="933" dy="522" grid="1" gridSize="10" guides="1" tooltips="1" connect="1" arrows="1" fold="1" page="1" pageScale="1" pageWidth="850" pageHeight="1100" math="0" shadow="0">
      <root>
        <mxCell id="0" />
        <mxCell id="1" parent="0" />
        <mxCell id="gwJYcJo6r7Gn75tGuYpu-2" value="" style="rounded=1;whiteSpace=wrap;html=1;" parent="1" vertex="1">
          <mxGeometry x="40" y="240" width="110" height="60" as="geometry" />
        </mxCell>
        <mxCell id="gwJYcJo6r7Gn75tGuYpu-3" value="" style="rounded=1;whiteSpace=wrap;html=1;" parent="1" vertex="1">
          <mxGeometry x="580" y="240" width="110" height="60" as="geometry" />
        </mxCell>
        <mxCell id="gwJYcJo6r7Gn75tGuYpu-4" value="" style="endArrow=classic;html=1;rounded=0;exitX=1;exitY=0.5;exitDx=0;exitDy=0;entryX=0;entryY=0.5;entryDx=0;entryDy=0;" parent="1" source="gwJYcJo6r7Gn75tGuYpu-6" target="gwJYcJo6r7Gn75tGuYpu-3" edge="1">
          <mxGeometry width="50" height="50" relative="1" as="geometry">
            <mxPoint x="200" y="240" as="sourcePoint" />
            <mxPoint x="250" y="190" as="targetPoint" />
          </mxGeometry>
        </mxCell>
        <mxCell id="gwJYcJo6r7Gn75tGuYpu-5" value="" style="rounded=1;whiteSpace=wrap;html=1;" parent="1" vertex="1">
          <mxGeometry x="210" y="240" width="120" height="60" as="geometry" />
        </mxCell>
        <mxCell id="gwJYcJo6r7Gn75tGuYpu-7" value="" style="endArrow=classic;html=1;rounded=0;exitX=1;exitY=0.5;exitDx=0;exitDy=0;entryX=0;entryY=0.5;entryDx=0;entryDy=0;" parent="1" source="gwJYcJo6r7Gn75tGuYpu-2" target="gwJYcJo6r7Gn75tGuYpu-6" edge="1">
          <mxGeometry width="50" height="50" relative="1" as="geometry">
            <mxPoint x="150" y="270" as="sourcePoint" />
            <mxPoint x="580" y="270" as="targetPoint" />
          </mxGeometry>
        </mxCell>
        <mxCell id="gwJYcJo6r7Gn75tGuYpu-6" value="" style="rounded=1;whiteSpace=wrap;html=1;" parent="1" vertex="1">
          <mxGeometry x="380" y="230" width="120" height="60" as="geometry" />
        </mxCell>
        <mxCell id="gwJYcJo6r7Gn75tGuYpu-8" style="edgeStyle=orthogonalEdgeStyle;rounded=0;orthogonalLoop=1;jettySize=auto;html=1;exitX=0.5;exitY=0;exitDx=0;exitDy=0;" parent="1" source="gwJYcJo6r7Gn75tGuYpu-6" target="gwJYcJo6r7Gn75tGuYpu-6" edge="1">
          <mxGeometry relative="1" as="geometry" />
        </mxCell>
        <mxCell id="gwJYcJo6r7Gn75tGuYpu-9" value="" style="shape=table;startSize=0;container=1;collapsible=0;childLayout=tableLayout;fontSize=16;" parent="1" vertex="1">
          <mxGeometry x="150" y="350" width="180" height="120" as="geometry" />
        </mxCell>
        <mxCell id="gwJYcJo6r7Gn75tGuYpu-10" value="" style="shape=tableRow;horizontal=0;startSize=0;swimlaneHead=0;swimlaneBody=0;strokeColor=inherit;top=0;left=0;bottom=0;right=0;collapsible=0;dropTarget=0;fillColor=none;points=[[0,0.5],[1,0.5]];portConstraint=eastwest;fontSize=16;" parent="gwJYcJo6r7Gn75tGuYpu-9" vertex="1">
          <mxGeometry width="180" height="40" as="geometry" />
        </mxCell>
        <mxCell id="gwJYcJo6r7Gn75tGuYpu-11" value="" style="shape=partialRectangle;html=1;whiteSpace=wrap;connectable=0;strokeColor=inherit;overflow=hidden;fillColor=none;top=0;left=0;bottom=0;right=0;pointerEvents=1;fontSize=16;" parent="gwJYcJo6r7Gn75tGuYpu-10" vertex="1">
          <mxGeometry width="60" height="40" as="geometry">
            <mxRectangle width="60" height="40" as="alternateBounds" />
          </mxGeometry>
        </mxCell>
        <mxCell id="gwJYcJo6r7Gn75tGuYpu-12" value="" style="shape=partialRectangle;html=1;whiteSpace=wrap;connectable=0;strokeColor=inherit;overflow=hidden;fillColor=none;top=0;left=0;bottom=0;right=0;pointerEvents=1;fontSize=16;" parent="gwJYcJo6r7Gn75tGuYpu-10" vertex="1">
          <mxGeometry x="60" width="60" height="40" as="geometry">
            <mxRectangle width="60" height="40" as="alternateBounds" />
          </mxGeometry>
        </mxCell>
        <mxCell id="gwJYcJo6r7Gn75tGuYpu-13" value="" style="shape=partialRectangle;html=1;whiteSpace=wrap;connectable=0;strokeColor=inherit;overflow=hidden;fillColor=none;top=0;left=0;bottom=0;right=0;pointerEvents=1;fontSize=16;" parent="gwJYcJo6r7Gn75tGuYpu-10" vertex="1">
          <mxGeometry x="120" width="60" height="40" as="geometry">
            <mxRectangle width="60" height="40" as="alternateBounds" />
          </mxGeometry>
        </mxCell>
        <mxCell id="gwJYcJo6r7Gn75tGuYpu-14" value="" style="shape=tableRow;horizontal=0;startSize=0;swimlaneHead=0;swimlaneBody=0;strokeColor=inherit;top=0;left=0;bottom=0;right=0;collapsible=0;dropTarget=0;fillColor=none;points=[[0,0.5],[1,0.5]];portConstraint=eastwest;fontSize=16;" parent="gwJYcJo6r7Gn75tGuYpu-9" vertex="1">
          <mxGeometry y="40" width="180" height="40" as="geometry" />
        </mxCell>
        <mxCell id="gwJYcJo6r7Gn75tGuYpu-15" value="" style="shape=partialRectangle;html=1;whiteSpace=wrap;connectable=0;strokeColor=inherit;overflow=hidden;fillColor=none;top=0;left=0;bottom=0;right=0;pointerEvents=1;fontSize=16;" parent="gwJYcJo6r7Gn75tGuYpu-14" vertex="1">
          <mxGeometry width="60" height="40" as="geometry">
            <mxRectangle width="60" height="40" as="alternateBounds" />
          </mxGeometry>
        </mxCell>
        <mxCell id="gwJYcJo6r7Gn75tGuYpu-16" value="" style="shape=partialRectangle;html=1;whiteSpace=wrap;connectable=0;strokeColor=inherit;overflow=hidden;fillColor=none;top=0;left=0;bottom=0;right=0;pointerEvents=1;fontSize=16;" parent="gwJYcJo6r7Gn75tGuYpu-14" vertex="1">
          <mxGeometry x="60" width="60" height="40" as="geometry">
            <mxRectangle width="60" height="40" as="alternateBounds" />
          </mxGeometry>
        </mxCell>
        <mxCell id="gwJYcJo6r7Gn75tGuYpu-17" value="" style="shape=partialRectangle;html=1;whiteSpace=wrap;connectable=0;strokeColor=inherit;overflow=hidden;fillColor=none;top=0;left=0;bottom=0;right=0;pointerEvents=1;fontSize=16;" parent="gwJYcJo6r7Gn75tGuYpu-14" vertex="1">
          <mxGeometry x="120" width="60" height="40" as="geometry">
            <mxRectangle width="60" height="40" as="alternateBounds" />
          </mxGeometry>
        </mxCell>
        <mxCell id="gwJYcJo6r7Gn75tGuYpu-18" value="" style="shape=tableRow;horizontal=0;startSize=0;swimlaneHead=0;swimlaneBody=0;strokeColor=inherit;top=0;left=0;bottom=0;right=0;collapsible=0;dropTarget=0;fillColor=none;points=[[0,0.5],[1,0.5]];portConstraint=eastwest;fontSize=16;" parent="gwJYcJo6r7Gn75tGuYpu-9" vertex="1">
          <mxGeometry y="80" width="180" height="40" as="geometry" />
        </mxCell>
        <mxCell id="gwJYcJo6r7Gn75tGuYpu-19" value="" style="shape=partialRectangle;html=1;whiteSpace=wrap;connectable=0;strokeColor=inherit;overflow=hidden;fillColor=none;top=0;left=0;bottom=0;right=0;pointerEvents=1;fontSize=16;" parent="gwJYcJo6r7Gn75tGuYpu-18" vertex="1">
          <mxGeometry width="60" height="40" as="geometry">
            <mxRectangle width="60" height="40" as="alternateBounds" />
          </mxGeometry>
        </mxCell>
        <mxCell id="gwJYcJo6r7Gn75tGuYpu-20" value="" style="shape=partialRectangle;html=1;whiteSpace=wrap;connectable=0;strokeColor=inherit;overflow=hidden;fillColor=none;top=0;left=0;bottom=0;right=0;pointerEvents=1;fontSize=16;" parent="gwJYcJo6r7Gn75tGuYpu-18" vertex="1">
          <mxGeometry x="60" width="60" height="40" as="geometry">
            <mxRectangle width="60" height="40" as="alternateBounds" />
          </mxGeometry>
        </mxCell>
        <mxCell id="gwJYcJo6r7Gn75tGuYpu-21" value="" style="shape=partialRectangle;html=1;whiteSpace=wrap;connectable=0;strokeColor=inherit;overflow=hidden;fillColor=none;top=0;left=0;bottom=0;right=0;pointerEvents=1;fontSize=16;" parent="gwJYcJo6r7Gn75tGuYpu-18" vertex="1">
          <mxGeometry x="120" width="60" height="40" as="geometry">
            <mxRectangle width="60" height="40" as="alternateBounds" />
          </mxGeometry>
        </mxCell>
      </root>
    </mxGraphModel>
  </diagram>
  <diagram id="5I7-JG7AxJ9r0cLZ26--" name="Page-5">
    <mxGraphModel dx="933" dy="522" grid="1" gridSize="10" guides="1" tooltips="1" connect="1" arrows="1" fold="1" page="1" pageScale="1" pageWidth="850" pageHeight="1100" math="0" shadow="0">
      <root>
        <mxCell id="0" />
        <mxCell id="1" parent="0" />
        <mxCell id="OL_hjIDCFcqEhXxHhnoa-54" style="edgeStyle=orthogonalEdgeStyle;rounded=0;orthogonalLoop=1;jettySize=auto;html=1;" parent="1" source="OL_hjIDCFcqEhXxHhnoa-2" target="OL_hjIDCFcqEhXxHhnoa-42" edge="1">
          <mxGeometry relative="1" as="geometry" />
        </mxCell>
        <mxCell id="OL_hjIDCFcqEhXxHhnoa-2" value="Client / ERP" style="shape=umlActor;verticalLabelPosition=bottom;verticalAlign=top;html=1;outlineConnect=0;" parent="1" vertex="1">
          <mxGeometry x="40" y="240" width="30" height="60" as="geometry" />
        </mxCell>
        <mxCell id="OL_hjIDCFcqEhXxHhnoa-3" value="HK Region" style="points=[[0,0],[0.25,0],[0.5,0],[0.75,0],[1,0],[1,0.25],[1,0.5],[1,0.75],[1,1],[0.75,1],[0.5,1],[0.25,1],[0,1],[0,0.75],[0,0.5],[0,0.25]];outlineConnect=0;gradientColor=none;html=1;whiteSpace=wrap;fontSize=12;fontStyle=0;container=1;pointerEvents=0;collapsible=0;recursiveResize=0;shape=mxgraph.aws4.group;grIcon=mxgraph.aws4.group_region;strokeColor=#00A4A6;fillColor=none;verticalAlign=top;align=left;spacingLeft=30;fontColor=#147EBA;dashed=1;" parent="1" vertex="1">
          <mxGeometry x="390" y="40" width="430" height="760" as="geometry" />
        </mxCell>
        <mxCell id="OL_hjIDCFcqEhXxHhnoa-5" value="VPC" style="points=[[0,0],[0.25,0],[0.5,0],[0.75,0],[1,0],[1,0.25],[1,0.5],[1,0.75],[1,1],[0.75,1],[0.5,1],[0.25,1],[0,1],[0,0.75],[0,0.5],[0,0.25]];outlineConnect=0;gradientColor=none;html=1;whiteSpace=wrap;fontSize=12;fontStyle=0;container=1;pointerEvents=0;collapsible=0;recursiveResize=0;shape=mxgraph.aws4.group;grIcon=mxgraph.aws4.group_vpc2;strokeColor=#8C4FFF;fillColor=none;verticalAlign=top;align=left;spacingLeft=30;fontColor=#AAB7B8;dashed=0;" parent="OL_hjIDCFcqEhXxHhnoa-3" vertex="1">
          <mxGeometry x="20" y="40" width="370" height="480" as="geometry" />
        </mxCell>
        <mxCell id="OL_hjIDCFcqEhXxHhnoa-31" value="" style="rounded=0;whiteSpace=wrap;html=1;" parent="OL_hjIDCFcqEhXxHhnoa-5" vertex="1">
          <mxGeometry x="199" y="273" width="120" height="240" as="geometry" />
        </mxCell>
        <mxCell id="OL_hjIDCFcqEhXxHhnoa-7" value="Kong on EC2&lt;div&gt;Both Control &amp;amp; Data Planer&lt;/div&gt;" style="rounded=0;whiteSpace=wrap;html=1;" parent="OL_hjIDCFcqEhXxHhnoa-5" vertex="1">
          <mxGeometry x="20" y="108" width="120" height="60" as="geometry" />
        </mxCell>
        <mxCell id="OL_hjIDCFcqEhXxHhnoa-8" value="" style="outlineConnect=0;dashed=0;verticalLabelPosition=bottom;verticalAlign=top;align=center;html=1;shape=mxgraph.aws3.api_gateway;fillColor=#D9A741;gradientColor=none;" parent="OL_hjIDCFcqEhXxHhnoa-5" vertex="1">
          <mxGeometry x="130" y="108" width="30" height="30" as="geometry" />
        </mxCell>
        <mxCell id="OL_hjIDCFcqEhXxHhnoa-10" value="" style="sketch=0;points=[[0,0,0],[0.25,0,0],[0.5,0,0],[0.75,0,0],[1,0,0],[0,1,0],[0.25,1,0],[0.5,1,0],[0.75,1,0],[1,1,0],[0,0.25,0],[0,0.5,0],[0,0.75,0],[1,0.25,0],[1,0.5,0],[1,0.75,0]];outlineConnect=0;fontColor=#232F3E;fillColor=#ED7100;strokeColor=#ffffff;dashed=0;verticalLabelPosition=bottom;verticalAlign=top;align=center;html=1;fontSize=12;fontStyle=0;aspect=fixed;shape=mxgraph.aws4.resourceIcon;resIcon=mxgraph.aws4.eks_distro;" parent="OL_hjIDCFcqEhXxHhnoa-5" vertex="1">
          <mxGeometry x="130" y="248" width="38" height="38" as="geometry" />
        </mxCell>
        <mxCell id="OL_hjIDCFcqEhXxHhnoa-11" value="" style="rounded=0;whiteSpace=wrap;html=1;" parent="OL_hjIDCFcqEhXxHhnoa-5" vertex="1">
          <mxGeometry x="20" y="268" width="120" height="240" as="geometry" />
        </mxCell>
        <mxCell id="OL_hjIDCFcqEhXxHhnoa-12" value="EKS EC2 Worker Node" style="text;html=1;align=center;verticalAlign=middle;resizable=0;points=[];autosize=1;strokeColor=none;fillColor=none;" parent="OL_hjIDCFcqEhXxHhnoa-5" vertex="1">
          <mxGeometry x="-10" y="237" width="150" height="30" as="geometry" />
        </mxCell>
        <mxCell id="OL_hjIDCFcqEhXxHhnoa-14" value="Payment&lt;div&gt;Pod&lt;/div&gt;" style="swimlane;fontStyle=0;childLayout=stackLayout;horizontal=1;startSize=30;horizontalStack=0;resizeParent=1;resizeParentMax=0;resizeLast=0;collapsible=1;marginBottom=0;whiteSpace=wrap;html=1;" parent="OL_hjIDCFcqEhXxHhnoa-5" vertex="1">
          <mxGeometry x="30" y="288" width="80" height="146" as="geometry">
            <mxRectangle x="30" y="230" width="110" height="40" as="alternateBounds" />
          </mxGeometry>
        </mxCell>
        <mxCell id="OL_hjIDCFcqEhXxHhnoa-15" value="Nginx" style="text;strokeColor=none;fillColor=none;align=left;verticalAlign=middle;spacingLeft=4;spacingRight=4;overflow=hidden;points=[[0,0.5],[1,0.5]];portConstraint=eastwest;rotatable=0;whiteSpace=wrap;html=1;" parent="OL_hjIDCFcqEhXxHhnoa-14" vertex="1">
          <mxGeometry y="30" width="80" height="30" as="geometry" />
        </mxCell>
        <mxCell id="OL_hjIDCFcqEhXxHhnoa-16" value="FileBeat" style="text;strokeColor=none;fillColor=none;align=left;verticalAlign=middle;spacingLeft=4;spacingRight=4;overflow=hidden;points=[[0,0.5],[1,0.5]];portConstraint=eastwest;rotatable=0;whiteSpace=wrap;html=1;" parent="OL_hjIDCFcqEhXxHhnoa-14" vertex="1">
          <mxGeometry y="60" width="80" height="30" as="geometry" />
        </mxCell>
        <mxCell id="OL_hjIDCFcqEhXxHhnoa-19" value="MetricBeat" style="text;strokeColor=none;fillColor=none;align=left;verticalAlign=top;spacingLeft=4;spacingRight=4;overflow=hidden;rotatable=0;points=[[0,0.5],[1,0.5]];portConstraint=eastwest;whiteSpace=wrap;html=1;" parent="OL_hjIDCFcqEhXxHhnoa-14" vertex="1">
          <mxGeometry y="90" width="80" height="26" as="geometry" />
        </mxCell>
        <mxCell id="OL_hjIDCFcqEhXxHhnoa-17" value="Exporter" style="text;strokeColor=none;fillColor=none;align=left;verticalAlign=middle;spacingLeft=4;spacingRight=4;overflow=hidden;points=[[0,0.5],[1,0.5]];portConstraint=eastwest;rotatable=0;whiteSpace=wrap;html=1;" parent="OL_hjIDCFcqEhXxHhnoa-14" vertex="1">
          <mxGeometry y="116" width="80" height="30" as="geometry" />
        </mxCell>
        <mxCell id="OL_hjIDCFcqEhXxHhnoa-24" value="Payment&lt;div&gt;Pod&lt;/div&gt;" style="swimlane;fontStyle=0;childLayout=stackLayout;horizontal=1;startSize=30;horizontalStack=0;resizeParent=1;resizeParentMax=0;resizeLast=0;collapsible=1;marginBottom=0;whiteSpace=wrap;html=1;" parent="OL_hjIDCFcqEhXxHhnoa-5" vertex="1">
          <mxGeometry x="217" y="298" width="80" height="146" as="geometry">
            <mxRectangle x="30" y="230" width="110" height="40" as="alternateBounds" />
          </mxGeometry>
        </mxCell>
        <mxCell id="OL_hjIDCFcqEhXxHhnoa-25" value="Nginx" style="text;strokeColor=none;fillColor=none;align=left;verticalAlign=middle;spacingLeft=4;spacingRight=4;overflow=hidden;points=[[0,0.5],[1,0.5]];portConstraint=eastwest;rotatable=0;whiteSpace=wrap;html=1;" parent="OL_hjIDCFcqEhXxHhnoa-24" vertex="1">
          <mxGeometry y="30" width="80" height="30" as="geometry" />
        </mxCell>
        <mxCell id="OL_hjIDCFcqEhXxHhnoa-26" value="FileBeat" style="text;strokeColor=none;fillColor=none;align=left;verticalAlign=middle;spacingLeft=4;spacingRight=4;overflow=hidden;points=[[0,0.5],[1,0.5]];portConstraint=eastwest;rotatable=0;whiteSpace=wrap;html=1;" parent="OL_hjIDCFcqEhXxHhnoa-24" vertex="1">
          <mxGeometry y="60" width="80" height="30" as="geometry" />
        </mxCell>
        <mxCell id="OL_hjIDCFcqEhXxHhnoa-27" value="MetricBeat" style="text;strokeColor=none;fillColor=none;align=left;verticalAlign=top;spacingLeft=4;spacingRight=4;overflow=hidden;rotatable=0;points=[[0,0.5],[1,0.5]];portConstraint=eastwest;whiteSpace=wrap;html=1;" parent="OL_hjIDCFcqEhXxHhnoa-24" vertex="1">
          <mxGeometry y="90" width="80" height="26" as="geometry" />
        </mxCell>
        <mxCell id="OL_hjIDCFcqEhXxHhnoa-28" value="Exporter" style="text;strokeColor=none;fillColor=none;align=left;verticalAlign=middle;spacingLeft=4;spacingRight=4;overflow=hidden;points=[[0,0.5],[1,0.5]];portConstraint=eastwest;rotatable=0;whiteSpace=wrap;html=1;" parent="OL_hjIDCFcqEhXxHhnoa-24" vertex="1">
          <mxGeometry y="116" width="80" height="30" as="geometry" />
        </mxCell>
        <mxCell id="OL_hjIDCFcqEhXxHhnoa-29" value="EKS EC2 Worker Node" style="text;html=1;align=center;verticalAlign=middle;resizable=0;points=[];autosize=1;strokeColor=none;fillColor=none;" parent="OL_hjIDCFcqEhXxHhnoa-5" vertex="1">
          <mxGeometry x="177" y="248" width="150" height="30" as="geometry" />
        </mxCell>
        <mxCell id="OL_hjIDCFcqEhXxHhnoa-30" value="" style="sketch=0;points=[[0,0,0],[0.25,0,0],[0.5,0,0],[0.75,0,0],[1,0,0],[0,1,0],[0.25,1,0],[0.5,1,0],[0.75,1,0],[1,1,0],[0,0.25,0],[0,0.5,0],[0,0.75,0],[1,0.25,0],[1,0.5,0],[1,0.75,0]];outlineConnect=0;fontColor=#232F3E;fillColor=#ED7100;strokeColor=#ffffff;dashed=0;verticalLabelPosition=bottom;verticalAlign=top;align=center;html=1;fontSize=12;fontStyle=0;aspect=fixed;shape=mxgraph.aws4.resourceIcon;resIcon=mxgraph.aws4.eks_distro;" parent="OL_hjIDCFcqEhXxHhnoa-5" vertex="1">
          <mxGeometry x="317" y="200" width="38" height="38" as="geometry" />
        </mxCell>
        <mxCell id="OL_hjIDCFcqEhXxHhnoa-32" value="Kafka Broker Pod" style="text;strokeColor=none;fillColor=none;align=left;verticalAlign=top;spacingLeft=4;spacingRight=4;overflow=hidden;rotatable=0;points=[[0,0.5],[1,0.5]];portConstraint=eastwest;whiteSpace=wrap;html=1;" parent="OL_hjIDCFcqEhXxHhnoa-5" vertex="1">
          <mxGeometry x="35" y="458" width="105" height="26" as="geometry" />
        </mxCell>
        <mxCell id="OL_hjIDCFcqEhXxHhnoa-33" value="Zookeeper Pod" style="text;strokeColor=none;fillColor=none;align=left;verticalAlign=top;spacingLeft=4;spacingRight=4;overflow=hidden;rotatable=0;points=[[0,0.5],[1,0.5]];portConstraint=eastwest;whiteSpace=wrap;html=1;" parent="OL_hjIDCFcqEhXxHhnoa-5" vertex="1">
          <mxGeometry x="32.5" y="484" width="95" height="26" as="geometry" />
        </mxCell>
        <mxCell id="OL_hjIDCFcqEhXxHhnoa-36" style="edgeStyle=orthogonalEdgeStyle;rounded=0;orthogonalLoop=1;jettySize=auto;html=1;exitX=0.5;exitY=1;exitDx=0;exitDy=0;entryX=0.6;entryY=0;entryDx=0;entryDy=0;entryPerimeter=0;" parent="OL_hjIDCFcqEhXxHhnoa-5" source="OL_hjIDCFcqEhXxHhnoa-9" edge="1">
          <mxGeometry relative="1" as="geometry">
            <mxPoint x="80" y="238" as="targetPoint" />
          </mxGeometry>
        </mxCell>
        <mxCell id="OL_hjIDCFcqEhXxHhnoa-37" value="" style="edgeStyle=orthogonalEdgeStyle;rounded=0;orthogonalLoop=1;jettySize=auto;html=1;exitX=0.5;exitY=1;exitDx=0;exitDy=0;entryX=0.6;entryY=0;entryDx=0;entryDy=0;entryPerimeter=0;" parent="OL_hjIDCFcqEhXxHhnoa-5" source="OL_hjIDCFcqEhXxHhnoa-7" target="OL_hjIDCFcqEhXxHhnoa-9" edge="1">
          <mxGeometry relative="1" as="geometry">
            <mxPoint x="490" y="248" as="sourcePoint" />
            <mxPoint x="490" y="318" as="targetPoint" />
          </mxGeometry>
        </mxCell>
        <mxCell id="OL_hjIDCFcqEhXxHhnoa-40" value="" style="edgeStyle=orthogonalEdgeStyle;rounded=0;orthogonalLoop=1;jettySize=auto;html=1;" parent="OL_hjIDCFcqEhXxHhnoa-5" source="OL_hjIDCFcqEhXxHhnoa-9" target="OL_hjIDCFcqEhXxHhnoa-39" edge="1">
          <mxGeometry relative="1" as="geometry" />
        </mxCell>
        <mxCell id="OL_hjIDCFcqEhXxHhnoa-9" value="" style="outlineConnect=0;dashed=0;verticalLabelPosition=bottom;verticalAlign=top;align=center;html=1;shape=mxgraph.aws3.application_load_balancer;fillColor=#F58534;gradientColor=none;" parent="OL_hjIDCFcqEhXxHhnoa-5" vertex="1">
          <mxGeometry x="60" y="188" width="40" height="40" as="geometry" />
        </mxCell>
        <mxCell id="OL_hjIDCFcqEhXxHhnoa-39" value="" style="shape=waypoint;sketch=0;size=6;pointerEvents=1;points=[];fillColor=#F58534;resizable=0;rotatable=0;perimeter=centerPerimeter;snapToPoint=1;verticalAlign=top;dashed=0;gradientColor=none;" parent="OL_hjIDCFcqEhXxHhnoa-5" vertex="1">
          <mxGeometry x="247" y="253" width="20" height="20" as="geometry" />
        </mxCell>
        <mxCell id="OL_hjIDCFcqEhXxHhnoa-53" value="" style="edgeStyle=orthogonalEdgeStyle;rounded=0;orthogonalLoop=1;jettySize=auto;html=1;" parent="OL_hjIDCFcqEhXxHhnoa-5" source="OL_hjIDCFcqEhXxHhnoa-51" edge="1">
          <mxGeometry relative="1" as="geometry">
            <mxPoint x="70" y="110" as="targetPoint" />
          </mxGeometry>
        </mxCell>
        <mxCell id="OL_hjIDCFcqEhXxHhnoa-51" value="" style="outlineConnect=0;dashed=0;verticalLabelPosition=bottom;verticalAlign=top;align=center;html=1;shape=mxgraph.aws3.application_load_balancer;fillColor=#F58534;gradientColor=none;" parent="OL_hjIDCFcqEhXxHhnoa-5" vertex="1">
          <mxGeometry x="49" y="30" width="42" height="50" as="geometry" />
        </mxCell>
        <mxCell id="OL_hjIDCFcqEhXxHhnoa-43" value="Amazon&lt;br&gt;Aurora&lt;div&gt;Postgres&lt;/div&gt;" style="sketch=0;outlineConnect=0;fontColor=#232F3E;gradientColor=none;strokeColor=#ffffff;fillColor=#232F3E;dashed=0;verticalLabelPosition=middle;verticalAlign=bottom;align=center;html=1;whiteSpace=wrap;fontSize=10;fontStyle=1;spacing=3;shape=mxgraph.aws4.productIcon;prIcon=mxgraph.aws4.aurora;" parent="OL_hjIDCFcqEhXxHhnoa-3" vertex="1">
          <mxGeometry x="165" y="643" width="80" height="110" as="geometry" />
        </mxCell>
        <mxCell id="OL_hjIDCFcqEhXxHhnoa-47" style="edgeStyle=orthogonalEdgeStyle;rounded=0;orthogonalLoop=1;jettySize=auto;html=1;entryX=0.088;entryY=0.031;entryDx=0;entryDy=0;entryPerimeter=0;" parent="OL_hjIDCFcqEhXxHhnoa-3" source="OL_hjIDCFcqEhXxHhnoa-16" edge="1">
          <mxGeometry relative="1" as="geometry">
            <mxPoint x="182.03999999999996" y="641.4100000000001" as="targetPoint" />
          </mxGeometry>
        </mxCell>
        <mxCell id="OL_hjIDCFcqEhXxHhnoa-48" style="edgeStyle=orthogonalEdgeStyle;rounded=0;orthogonalLoop=1;jettySize=auto;html=1;entryX=0.358;entryY=-0.005;entryDx=0;entryDy=0;entryPerimeter=0;exitX=0;exitY=0.5;exitDx=0;exitDy=0;" parent="OL_hjIDCFcqEhXxHhnoa-3" source="OL_hjIDCFcqEhXxHhnoa-26" edge="1">
          <mxGeometry relative="1" as="geometry">
            <mxPoint x="140" y="413" as="sourcePoint" />
            <mxPoint x="203.6400000000001" y="637.45" as="targetPoint" />
          </mxGeometry>
        </mxCell>
        <mxCell id="OL_hjIDCFcqEhXxHhnoa-34" value="Kafka Broker Pod" style="text;strokeColor=none;fillColor=none;align=left;verticalAlign=top;spacingLeft=4;spacingRight=4;overflow=hidden;rotatable=0;points=[[0,0.5],[1,0.5]];portConstraint=eastwest;whiteSpace=wrap;html=1;" parent="1" vertex="1">
          <mxGeometry x="620" y="540" width="105" height="26" as="geometry" />
        </mxCell>
        <mxCell id="OL_hjIDCFcqEhXxHhnoa-35" value="Zookeeper Pod" style="text;strokeColor=none;fillColor=none;align=left;verticalAlign=top;spacingLeft=4;spacingRight=4;overflow=hidden;rotatable=0;points=[[0,0.5],[1,0.5]];portConstraint=eastwest;whiteSpace=wrap;html=1;" parent="1" vertex="1">
          <mxGeometry x="617.5" y="566" width="95" height="26" as="geometry" />
        </mxCell>
        <mxCell id="OL_hjIDCFcqEhXxHhnoa-42" value="Akamai" style="outlineConnect=0;dashed=0;verticalLabelPosition=bottom;verticalAlign=top;align=center;html=1;shape=mxgraph.aws3.route_53;fillColor=#F58536;gradientColor=none;" parent="1" vertex="1">
          <mxGeometry x="170" y="227.25" width="70.5" height="85.5" as="geometry" />
        </mxCell>
        <mxCell id="OL_hjIDCFcqEhXxHhnoa-52" style="edgeStyle=orthogonalEdgeStyle;rounded=0;orthogonalLoop=1;jettySize=auto;html=1;entryX=0;entryY=0.5;entryDx=0;entryDy=0;entryPerimeter=0;" parent="1" source="OL_hjIDCFcqEhXxHhnoa-42" target="OL_hjIDCFcqEhXxHhnoa-51" edge="1">
          <mxGeometry relative="1" as="geometry" />
        </mxCell>
      </root>
    </mxGraphModel>
  </diagram>
  <diagram id="GvWzok9fuqhZ5KmWMR5o" name="swa">
    <mxGraphModel dx="933" dy="522" grid="1" gridSize="10" guides="1" tooltips="1" connect="1" arrows="1" fold="1" page="1" pageScale="1" pageWidth="850" pageHeight="1100" math="0" shadow="0">
      <root>
        <mxCell id="0" />
        <mxCell id="1" parent="0" />
        <mxCell id="BgKpd39B3-Z9FUVKt5Ng-4" value="" style="edgeStyle=orthogonalEdgeStyle;rounded=0;orthogonalLoop=1;jettySize=auto;html=1;" parent="1" source="BgKpd39B3-Z9FUVKt5Ng-1" target="BgKpd39B3-Z9FUVKt5Ng-3" edge="1">
          <mxGeometry relative="1" as="geometry" />
        </mxCell>
        <mxCell id="BgKpd39B3-Z9FUVKt5Ng-1" value="" style="image;aspect=fixed;perimeter=ellipsePerimeter;html=1;align=center;shadow=0;dashed=0;spacingTop=3;image=img/lib/active_directory/workstation_client.svg;" parent="1" vertex="1">
          <mxGeometry x="90" y="480" width="42.5" height="50" as="geometry" />
        </mxCell>
        <mxCell id="BgKpd39B3-Z9FUVKt5Ng-2" value="Client" style="text;html=1;align=center;verticalAlign=middle;resizable=0;points=[];autosize=1;strokeColor=none;fillColor=none;" parent="1" vertex="1">
          <mxGeometry x="86.25" y="535" width="50" height="30" as="geometry" />
        </mxCell>
        <mxCell id="BgKpd39B3-Z9FUVKt5Ng-3" value="Akamai ( DNS )" style="whiteSpace=wrap;html=1;verticalAlign=top;labelBackgroundColor=default;shadow=0;dashed=0;spacingTop=3;" parent="1" vertex="1">
          <mxGeometry x="173.75" y="475" width="120" height="60" as="geometry" />
        </mxCell>
        <mxCell id="BgKpd39B3-Z9FUVKt5Ng-5" value="Region" style="points=[[0,0],[0.25,0],[0.5,0],[0.75,0],[1,0],[1,0.25],[1,0.5],[1,0.75],[1,1],[0.75,1],[0.5,1],[0.25,1],[0,1],[0,0.75],[0,0.5],[0,0.25]];outlineConnect=0;gradientColor=none;html=1;whiteSpace=wrap;fontSize=12;fontStyle=0;container=1;pointerEvents=0;collapsible=0;recursiveResize=0;shape=mxgraph.aws4.group;grIcon=mxgraph.aws4.group_region;strokeColor=#00A4A6;fillColor=none;verticalAlign=top;align=left;spacingLeft=30;fontColor=#147EBA;dashed=1;" parent="1" vertex="1">
          <mxGeometry x="350" y="350" width="420" height="920" as="geometry" />
        </mxCell>
        <mxCell id="BgKpd39B3-Z9FUVKt5Ng-6" value="VPC" style="points=[[0,0],[0.25,0],[0.5,0],[0.75,0],[1,0],[1,0.25],[1,0.5],[1,0.75],[1,1],[0.75,1],[0.5,1],[0.25,1],[0,1],[0,0.75],[0,0.5],[0,0.25]];outlineConnect=0;gradientColor=none;html=1;whiteSpace=wrap;fontSize=12;fontStyle=0;container=1;pointerEvents=0;collapsible=0;recursiveResize=0;shape=mxgraph.aws4.group;grIcon=mxgraph.aws4.group_vpc2;strokeColor=#8C4FFF;fillColor=none;verticalAlign=top;align=left;spacingLeft=30;fontColor=#AAB7B8;dashed=0;" parent="BgKpd39B3-Z9FUVKt5Ng-5" vertex="1">
          <mxGeometry x="20" y="50" width="360" height="750" as="geometry" />
        </mxCell>
        <mxCell id="BgKpd39B3-Z9FUVKt5Ng-7" value="Public subnet" style="points=[[0,0],[0.25,0],[0.5,0],[0.75,0],[1,0],[1,0.25],[1,0.5],[1,0.75],[1,1],[0.75,1],[0.5,1],[0.25,1],[0,1],[0,0.75],[0,0.5],[0,0.25]];outlineConnect=0;gradientColor=none;html=1;whiteSpace=wrap;fontSize=12;fontStyle=0;container=1;pointerEvents=0;collapsible=0;recursiveResize=0;shape=mxgraph.aws4.group;grIcon=mxgraph.aws4.group_security_group;grStroke=0;strokeColor=#7AA116;fillColor=#F2F6E8;verticalAlign=top;align=left;spacingLeft=30;fontColor=#248814;dashed=0;" parent="BgKpd39B3-Z9FUVKt5Ng-6" vertex="1">
          <mxGeometry x="20" y="40" width="310" height="200" as="geometry" />
        </mxCell>
        <mxCell id="DdetmAFelRvYfsXoDzMA-23" value="" style="edgeStyle=orthogonalEdgeStyle;rounded=0;orthogonalLoop=1;jettySize=auto;html=1;" parent="BgKpd39B3-Z9FUVKt5Ng-7" source="BgKpd39B3-Z9FUVKt5Ng-9" target="BgKpd39B3-Z9FUVKt5Ng-10" edge="1">
          <mxGeometry relative="1" as="geometry" />
        </mxCell>
        <mxCell id="BgKpd39B3-Z9FUVKt5Ng-9" value="" style="outlineConnect=0;dashed=0;verticalLabelPosition=bottom;verticalAlign=top;align=center;html=1;shape=mxgraph.aws3.classic_load_balancer;fillColor=#F58534;gradientColor=none;" parent="BgKpd39B3-Z9FUVKt5Ng-7" vertex="1">
          <mxGeometry x="130" y="10" width="40" height="42" as="geometry" />
        </mxCell>
        <mxCell id="BgKpd39B3-Z9FUVKt5Ng-10" value="Kong Control Plane and Data Plane" style="whiteSpace=wrap;html=1;verticalAlign=top;labelBackgroundColor=default;shadow=0;dashed=0;spacingTop=3;" parent="BgKpd39B3-Z9FUVKt5Ng-7" vertex="1">
          <mxGeometry x="90" y="75" width="120" height="60" as="geometry" />
        </mxCell>
        <mxCell id="BgKpd39B3-Z9FUVKt5Ng-11" value="" style="outlineConnect=0;dashed=0;verticalLabelPosition=bottom;verticalAlign=top;align=center;html=1;shape=mxgraph.aws3.ec2;fillColor=#F58534;gradientColor=none;" parent="BgKpd39B3-Z9FUVKt5Ng-7" vertex="1">
          <mxGeometry x="190" y="52" width="30" height="40" as="geometry" />
        </mxCell>
        <mxCell id="BgKpd39B3-Z9FUVKt5Ng-8" value="Private subnet" style="points=[[0,0],[0.25,0],[0.5,0],[0.75,0],[1,0],[1,0.25],[1,0.5],[1,0.75],[1,1],[0.75,1],[0.5,1],[0.25,1],[0,1],[0,0.75],[0,0.5],[0,0.25]];outlineConnect=0;gradientColor=none;html=1;whiteSpace=wrap;fontSize=12;fontStyle=0;container=1;pointerEvents=0;collapsible=0;recursiveResize=0;shape=mxgraph.aws4.group;grIcon=mxgraph.aws4.group_security_group;grStroke=0;strokeColor=#00A4A6;fillColor=#E6F6F7;verticalAlign=top;align=left;spacingLeft=30;fontColor=#147EBA;dashed=0;" parent="BgKpd39B3-Z9FUVKt5Ng-6" vertex="1">
          <mxGeometry x="20" y="280" width="310" height="400" as="geometry" />
        </mxCell>
        <mxCell id="BgKpd39B3-Z9FUVKt5Ng-14" value="" style="outlineConnect=0;dashed=0;verticalLabelPosition=bottom;verticalAlign=top;align=center;html=1;shape=mxgraph.aws3.classic_load_balancer;fillColor=#F58534;gradientColor=none;" parent="BgKpd39B3-Z9FUVKt5Ng-8" vertex="1">
          <mxGeometry x="120" y="40" width="40" height="42" as="geometry" />
        </mxCell>
        <mxCell id="DdetmAFelRvYfsXoDzMA-22" style="edgeStyle=orthogonalEdgeStyle;rounded=0;orthogonalLoop=1;jettySize=auto;html=1;" parent="BgKpd39B3-Z9FUVKt5Ng-6" source="BgKpd39B3-Z9FUVKt5Ng-10" target="BgKpd39B3-Z9FUVKt5Ng-14" edge="1">
          <mxGeometry relative="1" as="geometry" />
        </mxCell>
        <mxCell id="DdetmAFelRvYfsXoDzMA-9" value="EKS EC2 Worker Node" style="text;html=1;align=center;verticalAlign=middle;resizable=0;points=[];autosize=1;strokeColor=none;fillColor=none;" parent="1" vertex="1">
          <mxGeometry x="405" y="790" width="150" height="30" as="geometry" />
        </mxCell>
        <mxCell id="DdetmAFelRvYfsXoDzMA-10" value="Payment&lt;div&gt;Pod&lt;/div&gt;" style="swimlane;fontStyle=0;childLayout=stackLayout;horizontal=1;startSize=30;horizontalStack=0;resizeParent=1;resizeParentMax=0;resizeLast=0;collapsible=1;marginBottom=0;whiteSpace=wrap;html=1;" parent="1" vertex="1">
          <mxGeometry x="445" y="841" width="80" height="146" as="geometry">
            <mxRectangle x="30" y="230" width="110" height="40" as="alternateBounds" />
          </mxGeometry>
        </mxCell>
        <mxCell id="DdetmAFelRvYfsXoDzMA-11" value="Nginx" style="text;strokeColor=none;fillColor=none;align=left;verticalAlign=middle;spacingLeft=4;spacingRight=4;overflow=hidden;points=[[0,0.5],[1,0.5]];portConstraint=eastwest;rotatable=0;whiteSpace=wrap;html=1;" parent="DdetmAFelRvYfsXoDzMA-10" vertex="1">
          <mxGeometry y="30" width="80" height="30" as="geometry" />
        </mxCell>
        <mxCell id="DdetmAFelRvYfsXoDzMA-12" value="FileBeat" style="text;strokeColor=none;fillColor=none;align=left;verticalAlign=middle;spacingLeft=4;spacingRight=4;overflow=hidden;points=[[0,0.5],[1,0.5]];portConstraint=eastwest;rotatable=0;whiteSpace=wrap;html=1;" parent="DdetmAFelRvYfsXoDzMA-10" vertex="1">
          <mxGeometry y="60" width="80" height="30" as="geometry" />
        </mxCell>
        <mxCell id="DdetmAFelRvYfsXoDzMA-13" value="MetricBeat" style="text;strokeColor=none;fillColor=none;align=left;verticalAlign=top;spacingLeft=4;spacingRight=4;overflow=hidden;rotatable=0;points=[[0,0.5],[1,0.5]];portConstraint=eastwest;whiteSpace=wrap;html=1;" parent="DdetmAFelRvYfsXoDzMA-10" vertex="1">
          <mxGeometry y="90" width="80" height="26" as="geometry" />
        </mxCell>
        <mxCell id="DdetmAFelRvYfsXoDzMA-14" value="Exporter" style="text;strokeColor=none;fillColor=none;align=left;verticalAlign=middle;spacingLeft=4;spacingRight=4;overflow=hidden;points=[[0,0.5],[1,0.5]];portConstraint=eastwest;rotatable=0;whiteSpace=wrap;html=1;" parent="DdetmAFelRvYfsXoDzMA-10" vertex="1">
          <mxGeometry y="116" width="80" height="30" as="geometry" />
        </mxCell>
        <mxCell id="DdetmAFelRvYfsXoDzMA-15" value="Kafka Broker Pod" style="text;strokeColor=none;fillColor=none;align=left;verticalAlign=top;spacingLeft=4;spacingRight=4;overflow=hidden;rotatable=0;points=[[0,0.5],[1,0.5]];portConstraint=eastwest;whiteSpace=wrap;html=1;" parent="1" vertex="1">
          <mxGeometry x="450" y="1011" width="105" height="26" as="geometry" />
        </mxCell>
        <mxCell id="DdetmAFelRvYfsXoDzMA-16" value="Zookeeper Pod" style="text;strokeColor=none;fillColor=none;align=left;verticalAlign=top;spacingLeft=4;spacingRight=4;overflow=hidden;rotatable=0;points=[[0,0.5],[1,0.5]];portConstraint=eastwest;whiteSpace=wrap;html=1;" parent="1" vertex="1">
          <mxGeometry x="447.5" y="1037" width="95" height="26" as="geometry" />
        </mxCell>
        <mxCell id="DdetmAFelRvYfsXoDzMA-17" value="" style="rounded=0;whiteSpace=wrap;html=1;textOpacity=0;fillColor=none;" parent="1" vertex="1">
          <mxGeometry x="435" y="820" width="120" height="251" as="geometry" />
        </mxCell>
        <mxCell id="DdetmAFelRvYfsXoDzMA-21" value="" style="edgeStyle=orthogonalEdgeStyle;rounded=0;orthogonalLoop=1;jettySize=auto;html=1;" parent="1" source="BgKpd39B3-Z9FUVKt5Ng-14" target="DdetmAFelRvYfsXoDzMA-17" edge="1">
          <mxGeometry relative="1" as="geometry" />
        </mxCell>
        <mxCell id="DdetmAFelRvYfsXoDzMA-24" value="" style="edgeStyle=orthogonalEdgeStyle;rounded=0;orthogonalLoop=1;jettySize=auto;html=1;" parent="1" source="BgKpd39B3-Z9FUVKt5Ng-3" target="BgKpd39B3-Z9FUVKt5Ng-9" edge="1">
          <mxGeometry relative="1" as="geometry" />
        </mxCell>
      </root>
    </mxGraphModel>
  </diagram>
  <diagram name="dliub" id="W772BHHb3vP_Gm8nuKqK">
    <mxGraphModel dx="933" dy="522" grid="1" gridSize="10" guides="1" tooltips="1" connect="1" arrows="1" fold="1" page="1" pageScale="1" pageWidth="850" pageHeight="1100" math="0" shadow="0">
      <root>
        <mxCell id="nyFTQwTiEjlwyZTT1VeA-0" />
        <mxCell id="nyFTQwTiEjlwyZTT1VeA-1" parent="nyFTQwTiEjlwyZTT1VeA-0" />
        <mxCell id="nyFTQwTiEjlwyZTT1VeA-2" value="Initialise Job ( git etc)" style="rounded=1;whiteSpace=wrap;html=1;" parent="nyFTQwTiEjlwyZTT1VeA-1" vertex="1">
          <mxGeometry x="40" y="710" width="120" height="60" as="geometry" />
        </mxCell>
        <mxCell id="nyFTQwTiEjlwyZTT1VeA-5" value="" style="endArrow=classic;html=1;rounded=0;exitX=1;exitY=0.5;exitDx=0;exitDy=0;" parent="nyFTQwTiEjlwyZTT1VeA-1" source="nyFTQwTiEjlwyZTT1VeA-2" target="nyFTQwTiEjlwyZTT1VeA-6" edge="1">
          <mxGeometry width="50" height="50" relative="1" as="geometry">
            <mxPoint x="160" y="740" as="sourcePoint" />
            <mxPoint x="500" y="740" as="targetPoint" />
          </mxGeometry>
        </mxCell>
        <mxCell id="n9Bbjmm85i8SVENTt4Ya-0" value="" style="edgeStyle=orthogonalEdgeStyle;rounded=0;orthogonalLoop=1;jettySize=auto;html=1;" parent="nyFTQwTiEjlwyZTT1VeA-1" source="nyFTQwTiEjlwyZTT1VeA-6" target="nyFTQwTiEjlwyZTT1VeA-8" edge="1">
          <mxGeometry relative="1" as="geometry" />
        </mxCell>
        <mxCell id="nyFTQwTiEjlwyZTT1VeA-6" value="git chckout" style="rounded=1;whiteSpace=wrap;html=1;" parent="nyFTQwTiEjlwyZTT1VeA-1" vertex="1">
          <mxGeometry x="200" y="710" width="120" height="60" as="geometry" />
        </mxCell>
        <mxCell id="nyFTQwTiEjlwyZTT1VeA-7" value="" style="endArrow=classic;html=1;rounded=0;exitX=1;exitY=0.5;exitDx=0;exitDy=0;" parent="nyFTQwTiEjlwyZTT1VeA-1" source="nyFTQwTiEjlwyZTT1VeA-6" target="nyFTQwTiEjlwyZTT1VeA-8" edge="1">
          <mxGeometry width="50" height="50" relative="1" as="geometry">
            <mxPoint x="330" y="740" as="sourcePoint" />
            <mxPoint x="500" y="740" as="targetPoint" />
          </mxGeometry>
        </mxCell>
        <mxCell id="nyFTQwTiEjlwyZTT1VeA-8" value="gitleaks scan" style="rounded=1;whiteSpace=wrap;html=1;" parent="nyFTQwTiEjlwyZTT1VeA-1" vertex="1">
          <mxGeometry x="360" y="710" width="120" height="60" as="geometry" />
        </mxCell>
        <mxCell id="n9Bbjmm85i8SVENTt4Ya-12" value="" style="edgeStyle=orthogonalEdgeStyle;rounded=0;orthogonalLoop=1;jettySize=auto;html=1;" parent="nyFTQwTiEjlwyZTT1VeA-1" target="n9Bbjmm85i8SVENTt4Ya-14" edge="1">
          <mxGeometry relative="1" as="geometry">
            <mxPoint x="479" y="741" as="sourcePoint" />
          </mxGeometry>
        </mxCell>
        <mxCell id="n9Bbjmm85i8SVENTt4Ya-13" value="" style="endArrow=classic;html=1;rounded=0;exitX=1;exitY=0.5;exitDx=0;exitDy=0;" parent="nyFTQwTiEjlwyZTT1VeA-1" target="n9Bbjmm85i8SVENTt4Ya-14" edge="1">
          <mxGeometry width="50" height="50" relative="1" as="geometry">
            <mxPoint x="479" y="741" as="sourcePoint" />
            <mxPoint x="659" y="741" as="targetPoint" />
          </mxGeometry>
        </mxCell>
        <mxCell id="n9Bbjmm85i8SVENTt4Ya-14" value="Setup JDK/Maven" style="rounded=1;whiteSpace=wrap;html=1;" parent="nyFTQwTiEjlwyZTT1VeA-1" vertex="1">
          <mxGeometry x="519" y="711" width="120" height="60" as="geometry" />
        </mxCell>
        <mxCell id="n9Bbjmm85i8SVENTt4Ya-15" value="" style="edgeStyle=orthogonalEdgeStyle;rounded=0;orthogonalLoop=1;jettySize=auto;html=1;" parent="nyFTQwTiEjlwyZTT1VeA-1" target="n9Bbjmm85i8SVENTt4Ya-17" edge="1">
          <mxGeometry relative="1" as="geometry">
            <mxPoint x="639" y="741" as="sourcePoint" />
          </mxGeometry>
        </mxCell>
        <mxCell id="n9Bbjmm85i8SVENTt4Ya-16" value="" style="endArrow=classic;html=1;rounded=0;exitX=1;exitY=0.5;exitDx=0;exitDy=0;" parent="nyFTQwTiEjlwyZTT1VeA-1" target="n9Bbjmm85i8SVENTt4Ya-17" edge="1">
          <mxGeometry width="50" height="50" relative="1" as="geometry">
            <mxPoint x="639" y="741" as="sourcePoint" />
            <mxPoint x="819" y="741" as="targetPoint" />
          </mxGeometry>
        </mxCell>
        <mxCell id="n9Bbjmm85i8SVENTt4Ya-17" value="update POM version" style="rounded=1;whiteSpace=wrap;html=1;" parent="nyFTQwTiEjlwyZTT1VeA-1" vertex="1">
          <mxGeometry x="679" y="711" width="120" height="60" as="geometry" />
        </mxCell>
        <mxCell id="n9Bbjmm85i8SVENTt4Ya-18" value="" style="edgeStyle=orthogonalEdgeStyle;rounded=0;orthogonalLoop=1;jettySize=auto;html=1;" parent="nyFTQwTiEjlwyZTT1VeA-1" edge="1">
          <mxGeometry relative="1" as="geometry">
            <mxPoint x="799" y="741" as="sourcePoint" />
            <mxPoint x="839" y="741" as="targetPoint" />
          </mxGeometry>
        </mxCell>
        <mxCell id="n9Bbjmm85i8SVENTt4Ya-19" value="" style="endArrow=classic;html=1;rounded=0;exitX=1;exitY=0.5;exitDx=0;exitDy=0;" parent="nyFTQwTiEjlwyZTT1VeA-1" edge="1">
          <mxGeometry width="50" height="50" relative="1" as="geometry">
            <mxPoint x="799" y="741" as="sourcePoint" />
            <mxPoint x="1000" y="741" as="targetPoint" />
          </mxGeometry>
        </mxCell>
        <mxCell id="n9Bbjmm85i8SVENTt4Ya-21" value="" style="edgeStyle=orthogonalEdgeStyle;rounded=0;orthogonalLoop=1;jettySize=auto;html=1;" parent="nyFTQwTiEjlwyZTT1VeA-1" target="n9Bbjmm85i8SVENTt4Ya-23" edge="1">
          <mxGeometry relative="1" as="geometry">
            <mxPoint x="959" y="741" as="sourcePoint" />
          </mxGeometry>
        </mxCell>
        <mxCell id="n9Bbjmm85i8SVENTt4Ya-28" value="" style="edgeStyle=orthogonalEdgeStyle;rounded=0;orthogonalLoop=1;jettySize=auto;html=1;" parent="nyFTQwTiEjlwyZTT1VeA-1" source="n9Bbjmm85i8SVENTt4Ya-23" target="n9Bbjmm85i8SVENTt4Ya-27" edge="1">
          <mxGeometry relative="1" as="geometry" />
        </mxCell>
        <mxCell id="n9Bbjmm85i8SVENTt4Ya-23" value="Build Maven" style="rounded=1;whiteSpace=wrap;html=1;" parent="nyFTQwTiEjlwyZTT1VeA-1" vertex="1">
          <mxGeometry x="999" y="711" width="120" height="60" as="geometry" />
        </mxCell>
        <mxCell id="n9Bbjmm85i8SVENTt4Ya-24" value="" style="edgeStyle=orthogonalEdgeStyle;rounded=0;orthogonalLoop=1;jettySize=auto;html=1;" parent="nyFTQwTiEjlwyZTT1VeA-1" target="n9Bbjmm85i8SVENTt4Ya-26" edge="1">
          <mxGeometry relative="1" as="geometry">
            <mxPoint x="1130" y="740" as="sourcePoint" />
          </mxGeometry>
        </mxCell>
        <mxCell id="n9Bbjmm85i8SVENTt4Ya-25" value="" style="endArrow=classic;html=1;rounded=0;exitX=1;exitY=0.5;exitDx=0;exitDy=0;" parent="nyFTQwTiEjlwyZTT1VeA-1" target="n9Bbjmm85i8SVENTt4Ya-26" edge="1">
          <mxGeometry width="50" height="50" relative="1" as="geometry">
            <mxPoint x="1130" y="740" as="sourcePoint" />
            <mxPoint x="1310" y="740" as="targetPoint" />
          </mxGeometry>
        </mxCell>
        <mxCell id="n9Bbjmm85i8SVENTt4Ya-26" value="Sonar Scan" style="rounded=1;whiteSpace=wrap;html=1;" parent="nyFTQwTiEjlwyZTT1VeA-1" vertex="1">
          <mxGeometry x="1155" y="711" width="120" height="60" as="geometry" />
        </mxCell>
        <mxCell id="n9Bbjmm85i8SVENTt4Ya-30" value="" style="edgeStyle=orthogonalEdgeStyle;rounded=0;orthogonalLoop=1;jettySize=auto;html=1;" parent="nyFTQwTiEjlwyZTT1VeA-1" source="n9Bbjmm85i8SVENTt4Ya-27" target="n9Bbjmm85i8SVENTt4Ya-29" edge="1">
          <mxGeometry relative="1" as="geometry" />
        </mxCell>
        <mxCell id="n9Bbjmm85i8SVENTt4Ya-27" value="Compile" style="rounded=1;whiteSpace=wrap;html=1;" parent="nyFTQwTiEjlwyZTT1VeA-1" vertex="1">
          <mxGeometry x="999" y="851" width="120" height="60" as="geometry" />
        </mxCell>
        <mxCell id="n9Bbjmm85i8SVENTt4Ya-31" style="edgeStyle=orthogonalEdgeStyle;rounded=0;orthogonalLoop=1;jettySize=auto;html=1;exitX=1;exitY=0.5;exitDx=0;exitDy=0;" parent="nyFTQwTiEjlwyZTT1VeA-1" source="n9Bbjmm85i8SVENTt4Ya-29" edge="1">
          <mxGeometry relative="1" as="geometry">
            <mxPoint x="1140" y="740" as="targetPoint" />
          </mxGeometry>
        </mxCell>
        <mxCell id="n9Bbjmm85i8SVENTt4Ya-29" value="Test ( Jacoco)" style="rounded=1;whiteSpace=wrap;html=1;" parent="nyFTQwTiEjlwyZTT1VeA-1" vertex="1">
          <mxGeometry x="999" y="991" width="120" height="60" as="geometry" />
        </mxCell>
        <mxCell id="n9Bbjmm85i8SVENTt4Ya-36" value="" style="endArrow=classic;html=1;rounded=0;exitX=1;exitY=0.5;exitDx=0;exitDy=0;" parent="nyFTQwTiEjlwyZTT1VeA-1" target="n9Bbjmm85i8SVENTt4Ya-37" edge="1">
          <mxGeometry width="50" height="50" relative="1" as="geometry">
            <mxPoint x="1275" y="741" as="sourcePoint" />
            <mxPoint x="1455" y="741" as="targetPoint" />
          </mxGeometry>
        </mxCell>
        <mxCell id="n9Bbjmm85i8SVENTt4Ya-37" value="Dependency Scan in Nexus" style="rounded=1;whiteSpace=wrap;html=1;" parent="nyFTQwTiEjlwyZTT1VeA-1" vertex="1">
          <mxGeometry x="1315" y="711" width="120" height="60" as="geometry" />
        </mxCell>
        <mxCell id="n9Bbjmm85i8SVENTt4Ya-38" value="" style="endArrow=classic;html=1;rounded=0;exitX=1;exitY=0.5;exitDx=0;exitDy=0;" parent="nyFTQwTiEjlwyZTT1VeA-1" target="n9Bbjmm85i8SVENTt4Ya-39" edge="1">
          <mxGeometry width="50" height="50" relative="1" as="geometry">
            <mxPoint x="1435" y="741" as="sourcePoint" />
            <mxPoint x="1615" y="741" as="targetPoint" />
          </mxGeometry>
        </mxCell>
        <mxCell id="n9Bbjmm85i8SVENTt4Ya-39" value="DockerFile Scan via checkov" style="rounded=1;whiteSpace=wrap;html=1;" parent="nyFTQwTiEjlwyZTT1VeA-1" vertex="1">
          <mxGeometry x="1475" y="711" width="120" height="60" as="geometry" />
        </mxCell>
        <mxCell id="n9Bbjmm85i8SVENTt4Ya-40" value="" style="endArrow=classic;html=1;rounded=0;exitX=1;exitY=0.5;exitDx=0;exitDy=0;" parent="nyFTQwTiEjlwyZTT1VeA-1" target="n9Bbjmm85i8SVENTt4Ya-41" edge="1">
          <mxGeometry width="50" height="50" relative="1" as="geometry">
            <mxPoint x="1595" y="740" as="sourcePoint" />
            <mxPoint x="1775" y="740" as="targetPoint" />
          </mxGeometry>
        </mxCell>
        <mxCell id="n9Bbjmm85i8SVENTt4Ya-41" value="Build Docker&lt;span style=&quot;color: rgba(0, 0, 0, 0); font-family: monospace; font-size: 0px; text-align: start; text-wrap: nowrap;&quot;&gt;%3CmxGraphModel%3E%3Croot%3E%3CmxCell%20id%3D%220%22%2F%3E%3CmxCell%20id%3D%221%22%20parent%3D%220%22%2F%3E%3CmxCell%20id%3D%222%22%20value%3D%22%22%20style%3D%22endArrow%3Dclassic%3Bhtml%3D1%3Brounded%3D0%3BexitX%3D1%3BexitY%3D0.5%3BexitDx%3D0%3BexitDy%3D0%3B%22%20edge%3D%221%22%20target%3D%223%22%20parent%3D%221%22%3E%3CmxGeometry%20width%3D%2250%22%20height%3D%2250%22%20relative%3D%221%22%20as%3D%22geometry%22%3E%3CmxPoint%20x%3D%221275%22%20y%3D%22741%22%20as%3D%22sourcePoint%22%2F%3E%3CmxPoint%20x%3D%221455%22%20y%3D%22741%22%20as%3D%22targetPoint%22%2F%3E%3C%2FmxGeometry%3E%3C%2FmxCell%3E%3CmxCell%20id%3D%223%22%20value%3D%22Dependency%20Scan%20in%20Nexus%22%20style%3D%22rounded%3D1%3BwhiteSpace%3Dwrap%3Bhtml%3D1%3B%22%20vertex%3D%221%22%20parent%3D%221%22%3E%3CmxGeometry%20x%3D%221315%22%20y%3D%22711%22%20width%3D%22120%22%20height%3D%2260%22%20as%3D%22geometry%22%2F%3E%3C%2FmxCell%3E%3C%2Froot%3E%3C%2FmxGraphModel%3E&lt;/span&gt;" style="rounded=1;whiteSpace=wrap;html=1;" parent="nyFTQwTiEjlwyZTT1VeA-1" vertex="1">
          <mxGeometry x="1635" y="710" width="120" height="60" as="geometry" />
        </mxCell>
        <mxCell id="n9Bbjmm85i8SVENTt4Ya-42" value="" style="endArrow=classic;html=1;rounded=0;exitX=1;exitY=0.5;exitDx=0;exitDy=0;" parent="nyFTQwTiEjlwyZTT1VeA-1" target="n9Bbjmm85i8SVENTt4Ya-43" edge="1">
          <mxGeometry width="50" height="50" relative="1" as="geometry">
            <mxPoint x="1750" y="741" as="sourcePoint" />
            <mxPoint x="1930" y="741" as="targetPoint" />
          </mxGeometry>
        </mxCell>
        <mxCell id="n9Bbjmm85i8SVENTt4Ya-43" value="Aqua Scan" style="rounded=1;whiteSpace=wrap;html=1;" parent="nyFTQwTiEjlwyZTT1VeA-1" vertex="1">
          <mxGeometry x="1800" y="711" width="120" height="60" as="geometry" />
        </mxCell>
        <mxCell id="n9Bbjmm85i8SVENTt4Ya-44" value="" style="endArrow=classic;html=1;rounded=0;exitX=1;exitY=0.5;exitDx=0;exitDy=0;" parent="nyFTQwTiEjlwyZTT1VeA-1" target="n9Bbjmm85i8SVENTt4Ya-45" edge="1">
          <mxGeometry width="50" height="50" relative="1" as="geometry">
            <mxPoint x="1920" y="741" as="sourcePoint" />
            <mxPoint x="2100" y="741" as="targetPoint" />
          </mxGeometry>
        </mxCell>
        <mxCell id="n9Bbjmm85i8SVENTt4Ya-45" value="VPT&lt;span style=&quot;color: rgba(0, 0, 0, 0); font-family: monospace; font-size: 0px; text-align: start; text-wrap: nowrap;&quot;&gt;%3CmxGraphModel%3E%3Croot%3E%3CmxCell%20id%3D%220%22%2F%3E%3CmxCell%20id%3D%221%22%20parent%3D%220%22%2F%3E%3CmxCell%20id%3D%222%22%20value%3D%22%22%20style%3D%22endArrow%3Dclassic%3Bhtml%3D1%3Brounded%3D0%3BexitX%3D1%3BexitY%3D0.5%3BexitDx%3D0%3BexitDy%3D0%3B%22%20edge%3D%221%22%20target%3D%223%22%20parent%3D%221%22%3E%3CmxGeometry%20width%3D%2250%22%20height%3D%2250%22%20relative%3D%221%22%20as%3D%22geometry%22%3E%3CmxPoint%20x%3D%221275%22%20y%3D%22741%22%20as%3D%22sourcePoint%22%2F%3E%3CmxPoint%20x%3D%221455%22%20y%3D%22741%22%20as%3D%22targetPoint%22%2F%3E%3C%2FmxGeometry%3E%3C%2FmxCell%3E%3CmxCell%20id%3D%223%22%20value%3D%22Dependency%20Scan%20in%20Nexus%22%20style%3D%22rounded%3D1%3BwhiteSpace%3Dwrap%3Bhtml%3D1%3B%22%20vertex%3D%221%22%20parent%3D%221%22%3E%3CmxGeometry%20x%3D%221315%22%20y%3D%22711%22%20width%3D%22120%22%20height%3D%2260%22%20as%3D%22geometry%22%2F%3E%3C%2FmxCell%3E%3C%2Froot%3E%3C%2FmxGraphModel%3E&lt;/span&gt;" style="rounded=1;whiteSpace=wrap;html=1;" parent="nyFTQwTiEjlwyZTT1VeA-1" vertex="1">
          <mxGeometry x="1960" y="711" width="120" height="60" as="geometry" />
        </mxCell>
        <mxCell id="n9Bbjmm85i8SVENTt4Ya-46" value="" style="endArrow=classic;html=1;rounded=0;exitX=1;exitY=0.5;exitDx=0;exitDy=0;" parent="nyFTQwTiEjlwyZTT1VeA-1" target="n9Bbjmm85i8SVENTt4Ya-47" edge="1">
          <mxGeometry width="50" height="50" relative="1" as="geometry">
            <mxPoint x="2080" y="740" as="sourcePoint" />
            <mxPoint x="2260" y="740" as="targetPoint" />
          </mxGeometry>
        </mxCell>
        <mxCell id="n9Bbjmm85i8SVENTt4Ya-47" value="SBOM&lt;span style=&quot;color: rgba(0, 0, 0, 0); font-family: monospace; font-size: 0px; text-align: start; text-wrap: nowrap;&quot;&gt;%3CmxGraphModel%3E%3Croot%3E%3CmxCell%20id%3D%220%22%2F%3E%3CmxCell%20id%3D%221%22%20parent%3D%220%22%2F%3E%3CmxCell%20id%3D%222%22%20value%3D%22%22%20style%3D%22endArrow%3Dclassic%3Bhtml%3D1%3Brounded%3D0%3BexitX%3D1%3BexitY%3D0.5%3BexitDx%3D0%3BexitDy%3D0%3B%22%20edge%3D%221%22%20target%3D%223%22%20parent%3D%221%22%3E%3CmxGeometry%20width%3D%2250%22%20height%3D%2250%22%20relative%3D%221%22%20as%3D%22geometry%22%3E%3CmxPoint%20x%3D%221275%22%20y%3D%22741%22%20as%3D%22sourcePoint%22%2F%3E%3CmxPoint%20x%3D%221455%22%20y%3D%22741%22%20as%3D%22targetPoint%22%2F%3E%3C%2FmxGeometry%3E%3C%2FmxCell%3E%3CmxCell%20id%3D%223%22%20value%3D%22Dependency%20Scan%20in%20Nexus%22%20style%3D%22rounded%3D1%3BwhiteSpace%3Dwrap%3Bhtml%3D1%3B%22%20vertex%3D%221%22%20parent%3D%221%22%3E%3CmxGeometry%20x%3D%221315%22%20y%3D%22711%22%20width%3D%22120%22%20height%3D%2260%22%20as%3D%22geometry%22%2F%3E%3C%2FmxCell%3E%3C%2Froot%3E%3C%2FmxGraphModel%3E&lt;/span&gt;" style="rounded=1;whiteSpace=wrap;html=1;" parent="nyFTQwTiEjlwyZTT1VeA-1" vertex="1">
          <mxGeometry x="2120" y="710" width="120" height="60" as="geometry" />
        </mxCell>
        <mxCell id="n9Bbjmm85i8SVENTt4Ya-48" value="" style="endArrow=classic;html=1;rounded=0;exitX=1;exitY=0.5;exitDx=0;exitDy=0;" parent="nyFTQwTiEjlwyZTT1VeA-1" target="n9Bbjmm85i8SVENTt4Ya-49" edge="1">
          <mxGeometry width="50" height="50" relative="1" as="geometry">
            <mxPoint x="2240" y="741" as="sourcePoint" />
            <mxPoint x="2420" y="741" as="targetPoint" />
          </mxGeometry>
        </mxCell>
        <mxCell id="n9Bbjmm85i8SVENTt4Ya-49" value="Publish Artifacts/Image to Artifactory/Image registry" style="rounded=1;whiteSpace=wrap;html=1;" parent="nyFTQwTiEjlwyZTT1VeA-1" vertex="1">
          <mxGeometry x="2280" y="711" width="120" height="60" as="geometry" />
        </mxCell>
        <mxCell id="n9Bbjmm85i8SVENTt4Ya-50" value="" style="endArrow=classic;html=1;rounded=0;exitX=1;exitY=0.5;exitDx=0;exitDy=0;" parent="nyFTQwTiEjlwyZTT1VeA-1" source="n9Bbjmm85i8SVENTt4Ya-55" target="n9Bbjmm85i8SVENTt4Ya-51" edge="1">
          <mxGeometry width="50" height="50" relative="1" as="geometry">
            <mxPoint x="2400" y="741" as="sourcePoint" />
            <mxPoint x="2580" y="741" as="targetPoint" />
          </mxGeometry>
        </mxCell>
        <mxCell id="n9Bbjmm85i8SVENTt4Ya-51" value="Vault Key Retreival" style="rounded=1;whiteSpace=wrap;html=1;" parent="nyFTQwTiEjlwyZTT1VeA-1" vertex="1">
          <mxGeometry x="2620" y="721" width="120" height="60" as="geometry" />
        </mxCell>
        <mxCell id="n9Bbjmm85i8SVENTt4Ya-54" value="" style="endArrow=classic;html=1;rounded=0;exitX=1;exitY=0.5;exitDx=0;exitDy=0;" parent="nyFTQwTiEjlwyZTT1VeA-1" target="n9Bbjmm85i8SVENTt4Ya-55" edge="1">
          <mxGeometry width="50" height="50" relative="1" as="geometry">
            <mxPoint x="2410" y="751" as="sourcePoint" />
            <mxPoint x="2590" y="751" as="targetPoint" />
          </mxGeometry>
        </mxCell>
        <mxCell id="n9Bbjmm85i8SVENTt4Ya-55" value="CoSign" style="rounded=1;whiteSpace=wrap;html=1;" parent="nyFTQwTiEjlwyZTT1VeA-1" vertex="1">
          <mxGeometry x="2450" y="721" width="120" height="60" as="geometry" />
        </mxCell>
        <mxCell id="n9Bbjmm85i8SVENTt4Ya-56" value="" style="endArrow=classic;html=1;rounded=0;exitX=1;exitY=0.5;exitDx=0;exitDy=0;" parent="nyFTQwTiEjlwyZTT1VeA-1" target="n9Bbjmm85i8SVENTt4Ya-57" edge="1">
          <mxGeometry width="50" height="50" relative="1" as="geometry">
            <mxPoint x="2740" y="751" as="sourcePoint" />
            <mxPoint x="2920" y="751" as="targetPoint" />
          </mxGeometry>
        </mxCell>
        <mxCell id="n9Bbjmm85i8SVENTt4Ya-57" value="Image Signing" style="rounded=1;whiteSpace=wrap;html=1;" parent="nyFTQwTiEjlwyZTT1VeA-1" vertex="1">
          <mxGeometry x="2780" y="721" width="120" height="60" as="geometry" />
        </mxCell>
        <mxCell id="n9Bbjmm85i8SVENTt4Ya-58" value="" style="endArrow=classic;html=1;rounded=0;exitX=1;exitY=0.5;exitDx=0;exitDy=0;" parent="nyFTQwTiEjlwyZTT1VeA-1" target="n9Bbjmm85i8SVENTt4Ya-59" edge="1">
          <mxGeometry width="50" height="50" relative="1" as="geometry">
            <mxPoint x="2910" y="751" as="sourcePoint" />
            <mxPoint x="3090" y="751" as="targetPoint" />
          </mxGeometry>
        </mxCell>
        <mxCell id="n9Bbjmm85i8SVENTt4Ya-59" value="Image Digest" style="rounded=1;whiteSpace=wrap;html=1;" parent="nyFTQwTiEjlwyZTT1VeA-1" vertex="1">
          <mxGeometry x="2950" y="721" width="120" height="60" as="geometry" />
        </mxCell>
        <mxCell id="n9Bbjmm85i8SVENTt4Ya-60" value="" style="endArrow=classic;html=1;rounded=0;exitX=1;exitY=0.5;exitDx=0;exitDy=0;" parent="nyFTQwTiEjlwyZTT1VeA-1" target="n9Bbjmm85i8SVENTt4Ya-61" edge="1">
          <mxGeometry width="50" height="50" relative="1" as="geometry">
            <mxPoint x="3070" y="751" as="sourcePoint" />
            <mxPoint x="3250" y="751" as="targetPoint" />
          </mxGeometry>
        </mxCell>
        <mxCell id="n9Bbjmm85i8SVENTt4Ya-61" value="Add Image digest to Helm" style="rounded=1;whiteSpace=wrap;html=1;" parent="nyFTQwTiEjlwyZTT1VeA-1" vertex="1">
          <mxGeometry x="3110" y="721" width="120" height="60" as="geometry" />
        </mxCell>
        <mxCell id="n9Bbjmm85i8SVENTt4Ya-62" value="" style="endArrow=classic;html=1;rounded=0;exitX=1;exitY=0.5;exitDx=0;exitDy=0;" parent="nyFTQwTiEjlwyZTT1VeA-1" target="n9Bbjmm85i8SVENTt4Ya-63" edge="1">
          <mxGeometry width="50" height="50" relative="1" as="geometry">
            <mxPoint x="3220" y="751" as="sourcePoint" />
            <mxPoint x="3400" y="751" as="targetPoint" />
          </mxGeometry>
        </mxCell>
        <mxCell id="n9Bbjmm85i8SVENTt4Ya-63" value="Archive Helm and Publish to Artifactory" style="rounded=1;whiteSpace=wrap;html=1;" parent="nyFTQwTiEjlwyZTT1VeA-1" vertex="1">
          <mxGeometry x="3260" y="721" width="120" height="60" as="geometry" />
        </mxCell>
      </root>
    </mxGraphModel>
  </diagram>
  <diagram id="3gZzm77B2W6gQPNIKUKH" name="Page-9">
    <mxGraphModel dx="1333" dy="1846" grid="1" gridSize="10" guides="1" tooltips="1" connect="1" arrows="1" fold="1" page="1" pageScale="1" pageWidth="850" pageHeight="1100" math="0" shadow="0">
      <root>
        <mxCell id="0" />
        <mxCell id="1" parent="0" />
        <mxCell id="YurxnZDYZIlRme9y5Q3n-1" value="" style="edgeStyle=orthogonalEdgeStyle;rounded=0;orthogonalLoop=1;jettySize=auto;html=1;" edge="1" source="YurxnZDYZIlRme9y5Q3n-2" target="YurxnZDYZIlRme9y5Q3n-4" parent="1">
          <mxGeometry relative="1" as="geometry" />
        </mxCell>
        <mxCell id="YurxnZDYZIlRme9y5Q3n-2" value="" style="image;aspect=fixed;perimeter=ellipsePerimeter;html=1;align=center;shadow=0;dashed=0;spacingTop=3;image=img/lib/active_directory/workstation_client.svg;" vertex="1" parent="1">
          <mxGeometry x="93.75" y="-900" width="42.5" height="50" as="geometry" />
        </mxCell>
        <mxCell id="YurxnZDYZIlRme9y5Q3n-3" value="Client" style="text;html=1;align=center;verticalAlign=middle;resizable=0;points=[];autosize=1;strokeColor=none;fillColor=none;" vertex="1" parent="1">
          <mxGeometry x="90" y="-845" width="50" height="30" as="geometry" />
        </mxCell>
        <mxCell id="YurxnZDYZIlRme9y5Q3n-4" value="" style="whiteSpace=wrap;html=1;verticalAlign=top;labelBackgroundColor=default;shadow=0;dashed=0;spacingTop=3;" vertex="1" parent="1">
          <mxGeometry x="177.5" y="-905" width="120" height="60" as="geometry" />
        </mxCell>
        <mxCell id="YurxnZDYZIlRme9y5Q3n-5" value="Region" style="points=[[0,0],[0.25,0],[0.5,0],[0.75,0],[1,0],[1,0.25],[1,0.5],[1,0.75],[1,1],[0.75,1],[0.5,1],[0.25,1],[0,1],[0,0.75],[0,0.5],[0,0.25]];outlineConnect=0;gradientColor=none;html=1;whiteSpace=wrap;fontSize=12;fontStyle=0;container=1;pointerEvents=0;collapsible=0;recursiveResize=0;shape=mxgraph.aws4.group;grIcon=mxgraph.aws4.group_region;strokeColor=#00A4A6;fillColor=none;verticalAlign=top;align=left;spacingLeft=30;fontColor=#147EBA;dashed=1;" vertex="1" parent="1">
          <mxGeometry x="353.75" y="-1030" width="420" height="920" as="geometry" />
        </mxCell>
        <mxCell id="YurxnZDYZIlRme9y5Q3n-6" value="VPC" style="points=[[0,0],[0.25,0],[0.5,0],[0.75,0],[1,0],[1,0.25],[1,0.5],[1,0.75],[1,1],[0.75,1],[0.5,1],[0.25,1],[0,1],[0,0.75],[0,0.5],[0,0.25]];outlineConnect=0;gradientColor=none;html=1;whiteSpace=wrap;fontSize=12;fontStyle=0;container=1;pointerEvents=0;collapsible=0;recursiveResize=0;shape=mxgraph.aws4.group;grIcon=mxgraph.aws4.group_vpc2;strokeColor=#8C4FFF;fillColor=none;verticalAlign=top;align=left;spacingLeft=30;fontColor=#AAB7B8;dashed=0;" vertex="1" parent="YurxnZDYZIlRme9y5Q3n-5">
          <mxGeometry x="20" y="50" width="360" height="750" as="geometry" />
        </mxCell>
        <mxCell id="YurxnZDYZIlRme9y5Q3n-7" value="Public subnet" style="points=[[0,0],[0.25,0],[0.5,0],[0.75,0],[1,0],[1,0.25],[1,0.5],[1,0.75],[1,1],[0.75,1],[0.5,1],[0.25,1],[0,1],[0,0.75],[0,0.5],[0,0.25]];outlineConnect=0;gradientColor=none;html=1;whiteSpace=wrap;fontSize=12;fontStyle=0;container=1;pointerEvents=0;collapsible=0;recursiveResize=0;shape=mxgraph.aws4.group;grIcon=mxgraph.aws4.group_security_group;grStroke=0;strokeColor=#7AA116;fillColor=#F2F6E8;verticalAlign=top;align=left;spacingLeft=30;fontColor=#248814;dashed=0;" vertex="1" parent="YurxnZDYZIlRme9y5Q3n-6">
          <mxGeometry x="20" y="40" width="310" height="200" as="geometry" />
        </mxCell>
        <mxCell id="YurxnZDYZIlRme9y5Q3n-8" value="" style="edgeStyle=orthogonalEdgeStyle;rounded=0;orthogonalLoop=1;jettySize=auto;html=1;" edge="1" parent="YurxnZDYZIlRme9y5Q3n-7" source="YurxnZDYZIlRme9y5Q3n-9" target="YurxnZDYZIlRme9y5Q3n-10">
          <mxGeometry relative="1" as="geometry" />
        </mxCell>
        <mxCell id="YurxnZDYZIlRme9y5Q3n-9" value="" style="outlineConnect=0;dashed=0;verticalLabelPosition=bottom;verticalAlign=top;align=center;html=1;shape=mxgraph.aws3.classic_load_balancer;fillColor=#F58534;gradientColor=none;" vertex="1" parent="YurxnZDYZIlRme9y5Q3n-7">
          <mxGeometry x="130" y="10" width="40" height="42" as="geometry" />
        </mxCell>
        <mxCell id="YurxnZDYZIlRme9y5Q3n-10" value="" style="whiteSpace=wrap;html=1;verticalAlign=top;labelBackgroundColor=default;shadow=0;dashed=0;spacingTop=3;" vertex="1" parent="YurxnZDYZIlRme9y5Q3n-7">
          <mxGeometry x="90" y="75" width="120" height="60" as="geometry" />
        </mxCell>
        <mxCell id="YurxnZDYZIlRme9y5Q3n-11" value="" style="outlineConnect=0;dashed=0;verticalLabelPosition=bottom;verticalAlign=top;align=center;html=1;shape=mxgraph.aws3.ec2;fillColor=#F58534;gradientColor=none;" vertex="1" parent="YurxnZDYZIlRme9y5Q3n-7">
          <mxGeometry x="190" y="52" width="30" height="40" as="geometry" />
        </mxCell>
        <mxCell id="YurxnZDYZIlRme9y5Q3n-12" value="Private subnet" style="points=[[0,0],[0.25,0],[0.5,0],[0.75,0],[1,0],[1,0.25],[1,0.5],[1,0.75],[1,1],[0.75,1],[0.5,1],[0.25,1],[0,1],[0,0.75],[0,0.5],[0,0.25]];outlineConnect=0;gradientColor=none;html=1;whiteSpace=wrap;fontSize=12;fontStyle=0;container=1;pointerEvents=0;collapsible=0;recursiveResize=0;shape=mxgraph.aws4.group;grIcon=mxgraph.aws4.group_security_group;grStroke=0;strokeColor=#00A4A6;fillColor=#E6F6F7;verticalAlign=top;align=left;spacingLeft=30;fontColor=#147EBA;dashed=0;" vertex="1" parent="YurxnZDYZIlRme9y5Q3n-6">
          <mxGeometry x="20" y="280" width="310" height="400" as="geometry" />
        </mxCell>
        <mxCell id="YurxnZDYZIlRme9y5Q3n-13" value="" style="outlineConnect=0;dashed=0;verticalLabelPosition=bottom;verticalAlign=top;align=center;html=1;shape=mxgraph.aws3.classic_load_balancer;fillColor=#F58534;gradientColor=none;" vertex="1" parent="YurxnZDYZIlRme9y5Q3n-12">
          <mxGeometry x="120" y="40" width="40" height="42" as="geometry" />
        </mxCell>
        <mxCell id="YurxnZDYZIlRme9y5Q3n-14" style="edgeStyle=orthogonalEdgeStyle;rounded=0;orthogonalLoop=1;jettySize=auto;html=1;" edge="1" parent="YurxnZDYZIlRme9y5Q3n-6" source="YurxnZDYZIlRme9y5Q3n-10" target="YurxnZDYZIlRme9y5Q3n-13">
          <mxGeometry relative="1" as="geometry" />
        </mxCell>
        <mxCell id="YurxnZDYZIlRme9y5Q3n-15" value="EKS EC2 Worker Node" style="text;html=1;align=center;verticalAlign=middle;resizable=0;points=[];autosize=1;strokeColor=none;fillColor=none;" vertex="1" parent="1">
          <mxGeometry x="408.75" y="-590" width="150" height="30" as="geometry" />
        </mxCell>
        <mxCell id="YurxnZDYZIlRme9y5Q3n-16" value="Payment&lt;div&gt;Pod&lt;/div&gt;" style="swimlane;fontStyle=0;childLayout=stackLayout;horizontal=1;startSize=30;horizontalStack=0;resizeParent=1;resizeParentMax=0;resizeLast=0;collapsible=1;marginBottom=0;whiteSpace=wrap;html=1;" vertex="1" parent="1">
          <mxGeometry x="448.75" y="-539" width="80" height="146" as="geometry">
            <mxRectangle x="30" y="230" width="110" height="40" as="alternateBounds" />
          </mxGeometry>
        </mxCell>
        <mxCell id="YurxnZDYZIlRme9y5Q3n-17" value="Nginx" style="text;strokeColor=none;fillColor=none;align=left;verticalAlign=middle;spacingLeft=4;spacingRight=4;overflow=hidden;points=[[0,0.5],[1,0.5]];portConstraint=eastwest;rotatable=0;whiteSpace=wrap;html=1;" vertex="1" parent="YurxnZDYZIlRme9y5Q3n-16">
          <mxGeometry y="30" width="80" height="30" as="geometry" />
        </mxCell>
        <mxCell id="YurxnZDYZIlRme9y5Q3n-18" value="FileBeat" style="text;strokeColor=none;fillColor=none;align=left;verticalAlign=middle;spacingLeft=4;spacingRight=4;overflow=hidden;points=[[0,0.5],[1,0.5]];portConstraint=eastwest;rotatable=0;whiteSpace=wrap;html=1;" vertex="1" parent="YurxnZDYZIlRme9y5Q3n-16">
          <mxGeometry y="60" width="80" height="30" as="geometry" />
        </mxCell>
        <mxCell id="YurxnZDYZIlRme9y5Q3n-19" value="MetricBeat" style="text;strokeColor=none;fillColor=none;align=left;verticalAlign=top;spacingLeft=4;spacingRight=4;overflow=hidden;rotatable=0;points=[[0,0.5],[1,0.5]];portConstraint=eastwest;whiteSpace=wrap;html=1;" vertex="1" parent="YurxnZDYZIlRme9y5Q3n-16">
          <mxGeometry y="90" width="80" height="26" as="geometry" />
        </mxCell>
        <mxCell id="YurxnZDYZIlRme9y5Q3n-20" value="Exporter" style="text;strokeColor=none;fillColor=none;align=left;verticalAlign=middle;spacingLeft=4;spacingRight=4;overflow=hidden;points=[[0,0.5],[1,0.5]];portConstraint=eastwest;rotatable=0;whiteSpace=wrap;html=1;" vertex="1" parent="YurxnZDYZIlRme9y5Q3n-16">
          <mxGeometry y="116" width="80" height="30" as="geometry" />
        </mxCell>
        <mxCell id="YurxnZDYZIlRme9y5Q3n-21" value="Kafka Broker Pod" style="text;strokeColor=none;fillColor=none;align=left;verticalAlign=top;spacingLeft=4;spacingRight=4;overflow=hidden;rotatable=0;points=[[0,0.5],[1,0.5]];portConstraint=eastwest;whiteSpace=wrap;html=1;" vertex="1" parent="1">
          <mxGeometry x="453.75" y="-369" width="105" height="26" as="geometry" />
        </mxCell>
        <mxCell id="YurxnZDYZIlRme9y5Q3n-22" value="Zookeeper Pod" style="text;strokeColor=none;fillColor=none;align=left;verticalAlign=top;spacingLeft=4;spacingRight=4;overflow=hidden;rotatable=0;points=[[0,0.5],[1,0.5]];portConstraint=eastwest;whiteSpace=wrap;html=1;" vertex="1" parent="1">
          <mxGeometry x="451.25" y="-343" width="95" height="26" as="geometry" />
        </mxCell>
        <mxCell id="YurxnZDYZIlRme9y5Q3n-23" value="" style="rounded=0;whiteSpace=wrap;html=1;textOpacity=0;fillColor=none;" vertex="1" parent="1">
          <mxGeometry x="438.75" y="-560" width="120" height="251" as="geometry" />
        </mxCell>
        <mxCell id="YurxnZDYZIlRme9y5Q3n-24" value="" style="edgeStyle=orthogonalEdgeStyle;rounded=0;orthogonalLoop=1;jettySize=auto;html=1;" edge="1" source="YurxnZDYZIlRme9y5Q3n-13" target="YurxnZDYZIlRme9y5Q3n-23" parent="1">
          <mxGeometry relative="1" as="geometry" />
        </mxCell>
        <mxCell id="YurxnZDYZIlRme9y5Q3n-25" value="" style="edgeStyle=orthogonalEdgeStyle;rounded=0;orthogonalLoop=1;jettySize=auto;html=1;" edge="1" source="YurxnZDYZIlRme9y5Q3n-4" target="YurxnZDYZIlRme9y5Q3n-9" parent="1">
          <mxGeometry relative="1" as="geometry" />
        </mxCell>
        <mxCell id="YurxnZDYZIlRme9y5Q3n-46" value="&lt;span style=&quot;color: rgba(0, 0, 0, 0); font-family: monospace; font-size: 0px; text-align: start; text-wrap: nowrap;&quot;&gt;%3CmxGraphModel%3E%3Croot%3E%3CmxCell%20id%3D%220%22%2F%3E%3CmxCell%20id%3D%221%22%20parent%3D%220%22%2F%3E%3CmxCell%20id%3D%222%22%20value%3D%22RedHat%20ocp-Master%20Node%22%20style%3D%22sketch%3D0%3BoutlineConnect%3D0%3BgradientColor%3Dnone%3Bhtml%3D1%3BwhiteSpace%3Dwrap%3BfontSize%3D12%3BfontStyle%3D0%3Bshape%3Dmxgraph.aws4.group%3BgrIcon%3Dmxgraph.aws4.group_on_premise%3BstrokeColor%3D%23858B94%3BfillColor%3Dnone%3BverticalAlign%3Dtop%3Balign%3Dleft%3BspacingLeft%3D30%3BfontColor%3D%23858B94%3Bdashed%3D0%3B%22%20vertex%3D%221%22%20parent%3D%221%22%3E%3CmxGeometry%20x%3D%22940%22%20y%3D%22-945%22%20width%3D%22230%22%20height%3D%22245%22%20as%3D%22geometry%22%2F%3E%3C%2FmxCell%3E%3CmxCell%20id%3D%223%22%20value%3D%22Master%20Node%22%20style%3D%22swimlane%3BfontStyle%3D0%3BchildLayout%3DstackLayout%3Bhorizontal%3D1%3BstartSize%3D30%3BhorizontalStack%3D0%3BresizeParent%3D1%3BresizeParentMax%3D0%3BresizeLast%3D0%3Bcollapsible%3D1%3BmarginBottom%3D0%3BwhiteSpace%3Dwrap%3Bhtml%3D1%3B%22%20vertex%3D%221%22%20parent%3D%221%22%3E%3CmxGeometry%20x%3D%22970%22%20y%3D%22-897.5%22%20width%3D%22140%22%20height%3D%22150%22%20as%3D%22geometry%22%2F%3E%3C%2FmxCell%3E%3CmxCell%20id%3D%224%22%20value%3D%22etcd%22%20style%3D%22text%3BstrokeColor%3Dnone%3BfillColor%3Dnone%3Balign%3Dleft%3BverticalAlign%3Dmiddle%3BspacingLeft%3D4%3BspacingRight%3D4%3Boverflow%3Dhidden%3Bpoints%3D%5B%5B0%2C0.5%5D%2C%5B1%2C0.5%5D%5D%3BportConstraint%3Deastwest%3Brotatable%3D0%3BwhiteSpace%3Dwrap%3Bhtml%3D1%3B%22%20vertex%3D%221%22%20parent%3D%223%22%3E%3CmxGeometry%20y%3D%2230%22%20width%3D%22140%22%20height%3D%2230%22%20as%3D%22geometry%22%2F%3E%3C%2FmxCell%3E%3CmxCell%20id%3D%225%22%20value%3D%22API%22%20style%3D%22text%3BstrokeColor%3Dnone%3BfillColor%3Dnone%3Balign%3Dleft%3BverticalAlign%3Dmiddle%3BspacingLeft%3D4%3BspacingRight%3D4%3Boverflow%3Dhidden%3Bpoints%3D%5B%5B0%2C0.5%5D%2C%5B1%2C0.5%5D%5D%3BportConstraint%3Deastwest%3Brotatable%3D0%3BwhiteSpace%3Dwrap%3Bhtml%3D1%3B%22%20vertex%3D%221%22%20parent%3D%223%22%3E%3CmxGeometry%20y%3D%2260%22%20width%3D%22140%22%20height%3D%2230%22%20as%3D%22geometry%22%2F%3E%3C%2FmxCell%3E%3CmxCell%20id%3D%226%22%20value%3D%22Replication%20Controller%22%20style%3D%22text%3BstrokeColor%3Dnone%3BfillColor%3Dnone%3Balign%3Dleft%3BverticalAlign%3Dmiddle%3BspacingLeft%3D4%3BspacingRight%3D4%3Boverflow%3Dhidden%3Bpoints%3D%5B%5B0%2C0.5%5D%2C%5B1%2C0.5%5D%5D%3BportConstraint%3Deastwest%3Brotatable%3D0%3BwhiteSpace%3Dwrap%3Bhtml%3D1%3B%22%20vertex%3D%221%22%20parent%3D%223%22%3E%3CmxGeometry%20y%3D%2290%22%20width%3D%22140%22%20height%3D%2230%22%20as%3D%22geometry%22%2F%3E%3C%2FmxCell%3E%3CmxCell%20id%3D%227%22%20value%3D%22Scheduler%22%20style%3D%22text%3BstrokeColor%3Dnone%3BfillColor%3Dnone%3Balign%3Dleft%3BverticalAlign%3Dmiddle%3BspacingLeft%3D4%3BspacingRight%3D4%3Boverflow%3Dhidden%3Bpoints%3D%5B%5B0%2C0.5%5D%2C%5B1%2C0.5%5D%5D%3BportConstraint%3Deastwest%3Brotatable%3D0%3BwhiteSpace%3Dwrap%3Bhtml%3D1%3B%22%20vertex%3D%221%22%20parent%3D%223%22%3E%3CmxGeometry%20y%3D%22120%22%20width%3D%22140%22%20height%3D%2230%22%20as%3D%22geometry%22%2F%3E%3C%2FmxCell%3E%3C%2Froot%3E%3C%2FmxGraphModel%3E&lt;/span&gt;" style="rounded=0;whiteSpace=wrap;html=1;dashed=1;labelPosition=center;verticalLabelPosition=top;align=center;verticalAlign=bottom;movable=0;" vertex="1" parent="1">
          <mxGeometry x="890" y="-1030" width="1080" height="920" as="geometry" />
        </mxCell>
        <mxCell id="YurxnZDYZIlRme9y5Q3n-47" value="" style="verticalLabelPosition=bottom;aspect=fixed;html=1;shape=mxgraph.salesforce.data2;" vertex="1" parent="1">
          <mxGeometry x="1270" y="-580" width="60" height="60" as="geometry" />
        </mxCell>
        <mxCell id="YurxnZDYZIlRme9y5Q3n-48" value="" style="verticalLabelPosition=bottom;aspect=fixed;html=1;shape=mxgraph.salesforce.data2;" vertex="1" parent="1">
          <mxGeometry x="1270" y="-580" width="60" height="60" as="geometry" />
        </mxCell>
        <mxCell id="YurxnZDYZIlRme9y5Q3n-49" value="RedHat ocp-Master Node" style="sketch=0;outlineConnect=0;gradientColor=none;html=1;whiteSpace=wrap;fontSize=12;fontStyle=0;shape=mxgraph.aws4.group;grIcon=mxgraph.aws4.group_on_premise;strokeColor=#858B94;fillColor=none;verticalAlign=top;align=left;spacingLeft=30;fontColor=#858B94;dashed=0;" vertex="1" parent="1">
          <mxGeometry x="940" y="-945" width="230" height="245" as="geometry" />
        </mxCell>
        <mxCell id="YurxnZDYZIlRme9y5Q3n-58" value="Master Node" style="swimlane;fontStyle=0;childLayout=stackLayout;horizontal=1;startSize=30;horizontalStack=0;resizeParent=1;resizeParentMax=0;resizeLast=0;collapsible=1;marginBottom=0;whiteSpace=wrap;html=1;" vertex="1" parent="1">
          <mxGeometry x="970" y="-897.5" width="140" height="150" as="geometry" />
        </mxCell>
        <mxCell id="YurxnZDYZIlRme9y5Q3n-59" value="etcd" style="text;strokeColor=none;fillColor=none;align=left;verticalAlign=middle;spacingLeft=4;spacingRight=4;overflow=hidden;points=[[0,0.5],[1,0.5]];portConstraint=eastwest;rotatable=0;whiteSpace=wrap;html=1;" vertex="1" parent="YurxnZDYZIlRme9y5Q3n-58">
          <mxGeometry y="30" width="140" height="30" as="geometry" />
        </mxCell>
        <mxCell id="YurxnZDYZIlRme9y5Q3n-60" value="API" style="text;strokeColor=none;fillColor=none;align=left;verticalAlign=middle;spacingLeft=4;spacingRight=4;overflow=hidden;points=[[0,0.5],[1,0.5]];portConstraint=eastwest;rotatable=0;whiteSpace=wrap;html=1;" vertex="1" parent="YurxnZDYZIlRme9y5Q3n-58">
          <mxGeometry y="60" width="140" height="30" as="geometry" />
        </mxCell>
        <mxCell id="YurxnZDYZIlRme9y5Q3n-61" value="Replication Controller" style="text;strokeColor=none;fillColor=none;align=left;verticalAlign=middle;spacingLeft=4;spacingRight=4;overflow=hidden;points=[[0,0.5],[1,0.5]];portConstraint=eastwest;rotatable=0;whiteSpace=wrap;html=1;" vertex="1" parent="YurxnZDYZIlRme9y5Q3n-58">
          <mxGeometry y="90" width="140" height="30" as="geometry" />
        </mxCell>
        <mxCell id="YurxnZDYZIlRme9y5Q3n-63" value="Scheduler" style="text;strokeColor=none;fillColor=none;align=left;verticalAlign=middle;spacingLeft=4;spacingRight=4;overflow=hidden;points=[[0,0.5],[1,0.5]];portConstraint=eastwest;rotatable=0;whiteSpace=wrap;html=1;" vertex="1" parent="YurxnZDYZIlRme9y5Q3n-58">
          <mxGeometry y="120" width="140" height="30" as="geometry" />
        </mxCell>
        <mxCell id="YurxnZDYZIlRme9y5Q3n-66" value="RedHat ocp" style="sketch=0;outlineConnect=0;gradientColor=none;html=1;whiteSpace=wrap;fontSize=12;fontStyle=0;shape=mxgraph.aws4.group;grIcon=mxgraph.aws4.group_on_premise;strokeColor=#858B94;fillColor=none;verticalAlign=top;align=left;spacingLeft=30;fontColor=#858B94;dashed=0;" vertex="1" parent="1">
          <mxGeometry x="939" y="-652" width="230" height="245" as="geometry" />
        </mxCell>
        <mxCell id="YurxnZDYZIlRme9y5Q3n-67" value="Infrastructure Node" style="swimlane;fontStyle=0;childLayout=stackLayout;horizontal=1;startSize=30;horizontalStack=0;resizeParent=1;resizeParentMax=0;resizeLast=0;collapsible=1;marginBottom=0;whiteSpace=wrap;html=1;" vertex="1" parent="1">
          <mxGeometry x="980" y="-600" width="140" height="120" as="geometry" />
        </mxCell>
        <mxCell id="YurxnZDYZIlRme9y5Q3n-68" value="Monitoring" style="text;strokeColor=none;fillColor=none;align=left;verticalAlign=middle;spacingLeft=4;spacingRight=4;overflow=hidden;points=[[0,0.5],[1,0.5]];portConstraint=eastwest;rotatable=0;whiteSpace=wrap;html=1;" vertex="1" parent="YurxnZDYZIlRme9y5Q3n-67">
          <mxGeometry y="30" width="140" height="30" as="geometry" />
        </mxCell>
        <mxCell id="YurxnZDYZIlRme9y5Q3n-69" value="Observability" style="text;strokeColor=none;fillColor=none;align=left;verticalAlign=middle;spacingLeft=4;spacingRight=4;overflow=hidden;points=[[0,0.5],[1,0.5]];portConstraint=eastwest;rotatable=0;whiteSpace=wrap;html=1;" vertex="1" parent="YurxnZDYZIlRme9y5Q3n-67">
          <mxGeometry y="60" width="140" height="30" as="geometry" />
        </mxCell>
        <mxCell id="YurxnZDYZIlRme9y5Q3n-70" value="HA Proxy" style="text;strokeColor=none;fillColor=none;align=left;verticalAlign=middle;spacingLeft=4;spacingRight=4;overflow=hidden;points=[[0,0.5],[1,0.5]];portConstraint=eastwest;rotatable=0;whiteSpace=wrap;html=1;" vertex="1" parent="YurxnZDYZIlRme9y5Q3n-67">
          <mxGeometry y="90" width="140" height="30" as="geometry" />
        </mxCell>
        <mxCell id="YurxnZDYZIlRme9y5Q3n-72" value="RedHat ocp-Worker Node (6)" style="sketch=0;outlineConnect=0;gradientColor=none;html=1;whiteSpace=wrap;fontSize=12;fontStyle=0;shape=mxgraph.aws4.group;grIcon=mxgraph.aws4.group_on_premise;strokeColor=#858B94;fillColor=none;verticalAlign=top;align=left;spacingLeft=30;fontColor=#858B94;dashed=0;" vertex="1" parent="1">
          <mxGeometry x="1290" y="-945" width="290" height="675" as="geometry" />
        </mxCell>
        <mxCell id="YurxnZDYZIlRme9y5Q3n-73" value="Payment" style="swimlane;fontStyle=0;childLayout=stackLayout;horizontal=1;startSize=30;horizontalStack=0;resizeParent=1;resizeParentMax=0;resizeLast=0;collapsible=1;marginBottom=0;whiteSpace=wrap;html=1;" vertex="1" parent="1">
          <mxGeometry x="1310" y="-900" width="140" height="180" as="geometry" />
        </mxCell>
        <mxCell id="YurxnZDYZIlRme9y5Q3n-74" value="Payment Pod" style="text;strokeColor=none;fillColor=none;align=left;verticalAlign=middle;spacingLeft=4;spacingRight=4;overflow=hidden;points=[[0,0.5],[1,0.5]];portConstraint=eastwest;rotatable=0;whiteSpace=wrap;html=1;" vertex="1" parent="YurxnZDYZIlRme9y5Q3n-73">
          <mxGeometry y="30" width="140" height="30" as="geometry" />
        </mxCell>
        <mxCell id="YurxnZDYZIlRme9y5Q3n-75" value="Nginx" style="text;strokeColor=none;fillColor=none;align=left;verticalAlign=middle;spacingLeft=4;spacingRight=4;overflow=hidden;points=[[0,0.5],[1,0.5]];portConstraint=eastwest;rotatable=0;whiteSpace=wrap;html=1;" vertex="1" parent="YurxnZDYZIlRme9y5Q3n-73">
          <mxGeometry y="60" width="140" height="30" as="geometry" />
        </mxCell>
        <mxCell id="YurxnZDYZIlRme9y5Q3n-76" value="FileBeat" style="text;strokeColor=none;fillColor=none;align=left;verticalAlign=middle;spacingLeft=4;spacingRight=4;overflow=hidden;points=[[0,0.5],[1,0.5]];portConstraint=eastwest;rotatable=0;whiteSpace=wrap;html=1;" vertex="1" parent="YurxnZDYZIlRme9y5Q3n-73">
          <mxGeometry y="90" width="140" height="30" as="geometry" />
        </mxCell>
        <mxCell id="YurxnZDYZIlRme9y5Q3n-77" value="MetricBeat" style="text;strokeColor=none;fillColor=none;align=left;verticalAlign=middle;spacingLeft=4;spacingRight=4;overflow=hidden;points=[[0,0.5],[1,0.5]];portConstraint=eastwest;rotatable=0;whiteSpace=wrap;html=1;" vertex="1" parent="YurxnZDYZIlRme9y5Q3n-73">
          <mxGeometry y="120" width="140" height="30" as="geometry" />
        </mxCell>
        <mxCell id="YurxnZDYZIlRme9y5Q3n-79" value="Exporter" style="text;strokeColor=none;fillColor=none;align=left;verticalAlign=middle;spacingLeft=4;spacingRight=4;overflow=hidden;points=[[0,0.5],[1,0.5]];portConstraint=eastwest;rotatable=0;whiteSpace=wrap;html=1;" vertex="1" parent="YurxnZDYZIlRme9y5Q3n-73">
          <mxGeometry y="150" width="140" height="30" as="geometry" />
        </mxCell>
        <mxCell id="YurxnZDYZIlRme9y5Q3n-80" value="Escrow" style="swimlane;fontStyle=0;childLayout=stackLayout;horizontal=1;startSize=30;horizontalStack=0;resizeParent=1;resizeParentMax=0;resizeLast=0;collapsible=1;marginBottom=0;whiteSpace=wrap;html=1;" vertex="1" parent="1">
          <mxGeometry x="1310" y="-690" width="140" height="180" as="geometry" />
        </mxCell>
        <mxCell id="YurxnZDYZIlRme9y5Q3n-81" value="Escrow Pod" style="text;strokeColor=none;fillColor=none;align=left;verticalAlign=middle;spacingLeft=4;spacingRight=4;overflow=hidden;points=[[0,0.5],[1,0.5]];portConstraint=eastwest;rotatable=0;whiteSpace=wrap;html=1;" vertex="1" parent="YurxnZDYZIlRme9y5Q3n-80">
          <mxGeometry y="30" width="140" height="30" as="geometry" />
        </mxCell>
        <mxCell id="YurxnZDYZIlRme9y5Q3n-82" value="Nginx" style="text;strokeColor=none;fillColor=none;align=left;verticalAlign=middle;spacingLeft=4;spacingRight=4;overflow=hidden;points=[[0,0.5],[1,0.5]];portConstraint=eastwest;rotatable=0;whiteSpace=wrap;html=1;" vertex="1" parent="YurxnZDYZIlRme9y5Q3n-80">
          <mxGeometry y="60" width="140" height="30" as="geometry" />
        </mxCell>
        <mxCell id="YurxnZDYZIlRme9y5Q3n-83" value="FileBeat" style="text;strokeColor=none;fillColor=none;align=left;verticalAlign=middle;spacingLeft=4;spacingRight=4;overflow=hidden;points=[[0,0.5],[1,0.5]];portConstraint=eastwest;rotatable=0;whiteSpace=wrap;html=1;" vertex="1" parent="YurxnZDYZIlRme9y5Q3n-80">
          <mxGeometry y="90" width="140" height="30" as="geometry" />
        </mxCell>
        <mxCell id="YurxnZDYZIlRme9y5Q3n-84" value="MetricBeat" style="text;strokeColor=none;fillColor=none;align=left;verticalAlign=middle;spacingLeft=4;spacingRight=4;overflow=hidden;points=[[0,0.5],[1,0.5]];portConstraint=eastwest;rotatable=0;whiteSpace=wrap;html=1;" vertex="1" parent="YurxnZDYZIlRme9y5Q3n-80">
          <mxGeometry y="120" width="140" height="30" as="geometry" />
        </mxCell>
        <mxCell id="YurxnZDYZIlRme9y5Q3n-85" value="Exporter" style="text;strokeColor=none;fillColor=none;align=left;verticalAlign=middle;spacingLeft=4;spacingRight=4;overflow=hidden;points=[[0,0.5],[1,0.5]];portConstraint=eastwest;rotatable=0;whiteSpace=wrap;html=1;" vertex="1" parent="YurxnZDYZIlRme9y5Q3n-80">
          <mxGeometry y="150" width="140" height="30" as="geometry" />
        </mxCell>
        <mxCell id="YurxnZDYZIlRme9y5Q3n-86" value="Trade" style="swimlane;fontStyle=0;childLayout=stackLayout;horizontal=1;startSize=30;horizontalStack=0;resizeParent=1;resizeParentMax=0;resizeLast=0;collapsible=1;marginBottom=0;whiteSpace=wrap;html=1;" vertex="1" parent="1">
          <mxGeometry x="1310" y="-490" width="140" height="180" as="geometry" />
        </mxCell>
        <mxCell id="YurxnZDYZIlRme9y5Q3n-87" value="Trade Pod" style="text;strokeColor=none;fillColor=none;align=left;verticalAlign=middle;spacingLeft=4;spacingRight=4;overflow=hidden;points=[[0,0.5],[1,0.5]];portConstraint=eastwest;rotatable=0;whiteSpace=wrap;html=1;" vertex="1" parent="YurxnZDYZIlRme9y5Q3n-86">
          <mxGeometry y="30" width="140" height="30" as="geometry" />
        </mxCell>
        <mxCell id="YurxnZDYZIlRme9y5Q3n-88" value="Nginx" style="text;strokeColor=none;fillColor=none;align=left;verticalAlign=middle;spacingLeft=4;spacingRight=4;overflow=hidden;points=[[0,0.5],[1,0.5]];portConstraint=eastwest;rotatable=0;whiteSpace=wrap;html=1;" vertex="1" parent="YurxnZDYZIlRme9y5Q3n-86">
          <mxGeometry y="60" width="140" height="30" as="geometry" />
        </mxCell>
        <mxCell id="YurxnZDYZIlRme9y5Q3n-89" value="FileBeat" style="text;strokeColor=none;fillColor=none;align=left;verticalAlign=middle;spacingLeft=4;spacingRight=4;overflow=hidden;points=[[0,0.5],[1,0.5]];portConstraint=eastwest;rotatable=0;whiteSpace=wrap;html=1;" vertex="1" parent="YurxnZDYZIlRme9y5Q3n-86">
          <mxGeometry y="90" width="140" height="30" as="geometry" />
        </mxCell>
        <mxCell id="YurxnZDYZIlRme9y5Q3n-90" value="MetricBeat" style="text;strokeColor=none;fillColor=none;align=left;verticalAlign=middle;spacingLeft=4;spacingRight=4;overflow=hidden;points=[[0,0.5],[1,0.5]];portConstraint=eastwest;rotatable=0;whiteSpace=wrap;html=1;" vertex="1" parent="YurxnZDYZIlRme9y5Q3n-86">
          <mxGeometry y="120" width="140" height="30" as="geometry" />
        </mxCell>
        <mxCell id="YurxnZDYZIlRme9y5Q3n-91" value="Exporter" style="text;strokeColor=none;fillColor=none;align=left;verticalAlign=middle;spacingLeft=4;spacingRight=4;overflow=hidden;points=[[0,0.5],[1,0.5]];portConstraint=eastwest;rotatable=0;whiteSpace=wrap;html=1;" vertex="1" parent="YurxnZDYZIlRme9y5Q3n-86">
          <mxGeometry y="150" width="140" height="30" as="geometry" />
        </mxCell>
        <mxCell id="YurxnZDYZIlRme9y5Q3n-92" value="RTA Pod" style="text;strokeColor=none;fillColor=none;align=left;verticalAlign=middle;spacingLeft=4;spacingRight=4;overflow=hidden;points=[[0,0.5],[1,0.5]];portConstraint=eastwest;rotatable=0;whiteSpace=wrap;html=1;" vertex="1" parent="1">
          <mxGeometry x="1450" y="-870" width="140" height="30" as="geometry" />
        </mxCell>
        <mxCell id="YurxnZDYZIlRme9y5Q3n-93" value="Kafka Broker" style="outlineConnect=0;dashed=0;verticalLabelPosition=bottom;verticalAlign=top;align=center;html=1;shape=mxgraph.aws3.topic_2;fillColor=#D9A741;gradientColor=none;" vertex="1" parent="1">
          <mxGeometry x="1630" y="-630" width="93" height="58.5" as="geometry" />
        </mxCell>
        <mxCell id="YurxnZDYZIlRme9y5Q3n-94" value="" style="shape=cylinder3;whiteSpace=wrap;html=1;boundedLbl=1;backgroundOutline=1;size=15;" vertex="1" parent="1">
          <mxGeometry x="1846.5" y="-630" width="60" height="80" as="geometry" />
        </mxCell>
      </root>
    </mxGraphModel>
  </diagram>
</mxfile>
